<?xml version="1.0" standalone="no"?>
<!DOCTYPE svg PUBLIC "-//W3C//DTD SVG 20010904//EN"
 "http://www.w3.org/TR/2001/REC-SVG-20010904/DTD/svg10.dtd">
<svg version="1.0" xmlns="http://www.w3.org/2000/svg"
 width="1024.000000pt" height="1024.000000pt" viewBox="0 0 1024.000000 1024.000000"
 preserveAspectRatio="xMidYMid meet">
<metadata>
Created by potrace 1.11, written by Peter Selinger 2001-2013
</metadata>
<g transform="translate(0.000000,1024.000000) scale(0.100000,-0.100000)"
fill="#000000" stroke="none">
<path d="M6208 10235 c-2 -1 -34 -6 -73 -9 -74 -7 -107 -11 -195 -27 -86 -15
-96 -16 -170 -34 -26 -6 -126 -29 -130 -30 -3 0 -9 -3 -15 -6 -5 -4 -26 -10
-45 -14 -19 -4 -39 -10 -45 -14 -5 -3 -12 -6 -15 -7 -58 -9 -303 -105 -423
-165 -162 -81 -389 -227 -520 -334 -95 -79 -125 -102 -141 -115 -42 -33 -181
-158 -250 -225 -51 -49 -151 -165 -204 -237 -57 -78 -142 -205 -142 -214 0 -4
-6 -15 -14 -23 -8 -9 -30 -47 -50 -85 -20 -38 -41 -75 -47 -82 -6 -7 -12 -19
-13 -26 -2 -7 -20 -49 -40 -93 -76 -161 -124 -280 -164 -405 -35 -108 -52
-167 -66 -230 -3 -14 -8 -36 -11 -50 -3 -14 -8 -38 -10 -53 -2 -16 -6 -40 -10
-55 -32 -149 -46 -331 -48 -636 l-2 -209 -417 0 -418 1 0 -877 0 -877 411 1
c226 0 414 -2 418 -5 5 -3 8 -1146 9 -2540 0 -1394 1 -2541 1 -2547 1 -10 182
-13 869 -13 l867 0 0 2553 0 2552 1070 0 1070 0 0 875 0 875 -1045 2 c-575 1
-1057 2 -1071 2 l-25 1 2 223 c1 230 5 280 30 407 30 150 95 311 176 437 56
85 252 285 337 342 159 108 346 176 566 207 28 4 374 8 770 9 l720 1 3 878 2
877 -749 -1 c-412 -1 -751 -3 -753 -5z"/>
</g>
</svg>
