<svg width="460" height="224" viewBox="0 0 460 224" fill="none" xmlns="http://www.w3.org/2000/svg">
<path fill-rule="evenodd" clip-rule="evenodd" d="M109.17 116.651L99.5098 66.9557C102.832 66.3106 105.786 66.0251 109.17 66.0251V116.651Z" fill="#231F20"/>
<path fill-rule="evenodd" clip-rule="evenodd" d="M109.17 116.651L74.9316 71.2163C82.0062 65.884 89.6172 62.495 98.3142 60.8046L109.17 116.651Z" fill="#BCBEC0"/>
<path fill-rule="evenodd" clip-rule="evenodd" d="M109.17 116.651L53.1926 86.8893C57.8291 78.1721 63.131 71.963 71.0173 66.0211L109.17 116.651Z" fill="#183642"/>
<path fill-rule="evenodd" clip-rule="evenodd" d="M109.17 116.651L39.7667 117.862C39.5503 105.481 42.0657 94.997 47.8816 84.0631L109.17 116.651Z" fill="#567483"/>
<path fill-rule="evenodd" clip-rule="evenodd" d="M109.17 116.651L46.6737 158.805C38.2216 146.276 34.0606 133.077 33.7954 117.967L109.17 116.651Z" fill="#A5C3D2"/>
<path fill-rule="evenodd" clip-rule="evenodd" d="M109.17 116.651L127.584 196.418C93.7964 204.219 60.6919 191.178 41.3008 162.428L109.17 116.651Z" fill="#3E0000"/>
<path fill-rule="evenodd" clip-rule="evenodd" d="M109.17 116.651L197.707 112.011C199.982 155.431 171.48 193.257 129.111 203.037L109.17 116.651Z" fill="#8B010E"/>
<path fill-rule="evenodd" clip-rule="evenodd" d="M109.17 116.651V21.4432C160.122 21.4432 201.579 60.7863 204.246 111.668L109.17 116.651Z" fill="#CE1126"/>
<path d="M109.17 116.651L218.2 110.927" stroke="black" stroke-width="0.2"/>
<path d="M109.17 116.651L133.874 223" stroke="black" stroke-width="0.2"/>
<path d="M109.17 116.651L18.7451 177.835" stroke="black" stroke-width="0.2"/>
<path d="M109.17 116.651L0.00219727 118.428" stroke="black" stroke-width="0.2"/>
<path d="M109.17 116.651L12.7739 65.3821" stroke="black" stroke-width="0.2"/>
<path d="M109.17 116.651L43.4453 29.4686" stroke="black" stroke-width="0.2"/>
<path d="M109.17 116.651L88.2292 9.49744" stroke="#231F20" stroke-width="0.2"/>
<mask id="mask0" mask-type="alpha" maskUnits="userSpaceOnUse" x="108" y="7" width="2" height="110">
<path fill-rule="evenodd" clip-rule="evenodd" d="M108.965 7.4718H109.666V116.651H108.965V7.4718Z" fill="white"/>
</mask>
<g mask="url(#mask0)">
<path d="M109.17 116.651L109.465 7.4718" stroke="#231F20" stroke-width="0.2"/>
</g>
<path d="M217.576 97.3087V99.4207H209.112V97.7407L213.432 93.6607C213.891 93.2233 214.2 92.85 214.36 92.5407C214.52 92.2207 214.6 91.906 214.6 91.5967C214.6 91.1487 214.446 90.8073 214.136 90.5727C213.838 90.3273 213.395 90.2047 212.808 90.2047C212.318 90.2047 211.875 90.3007 211.48 90.4927C211.086 90.674 210.755 90.9513 210.488 91.3247L208.6 90.1087C209.038 89.458 209.64 88.9513 210.408 88.5887C211.176 88.2153 212.056 88.0287 213.048 88.0287C213.88 88.0287 214.606 88.1673 215.224 88.4447C215.854 88.7113 216.339 89.0953 216.68 89.5967C217.032 90.0873 217.208 90.6687 217.208 91.3407C217.208 91.9487 217.08 92.5193 216.824 93.0527C216.568 93.586 216.072 94.194 215.336 94.8767L212.76 97.3087H217.576ZM228.745 97.0687H226.921V99.4207H224.393V97.0687H218.361V95.3247L223.641 88.2207H226.361L221.465 94.9567H224.473V92.8607H226.921V94.9567H228.745V97.0687Z" fill="#616365"/>
<path d="M147.496 212.053V214.165H139.032V212.485L143.352 208.405C143.811 207.967 144.12 207.594 144.28 207.285C144.44 206.965 144.52 206.65 144.52 206.341C144.52 205.893 144.365 205.551 144.056 205.317C143.757 205.071 143.315 204.949 142.728 204.949C142.237 204.949 141.795 205.045 141.4 205.237C141.005 205.418 140.675 205.695 140.408 206.069L138.52 204.853C138.957 204.202 139.56 203.695 140.328 203.333C141.096 202.959 141.976 202.773 142.968 202.773C143.8 202.773 144.525 202.911 145.144 203.189C145.773 203.455 146.259 203.839 146.6 204.341C146.952 204.831 147.128 205.413 147.128 206.085C147.128 206.693 147 207.263 146.744 207.797C146.488 208.33 145.992 208.938 145.256 209.621L142.68 212.053H147.496ZM156.933 212.053V214.165H148.469V212.485L152.789 208.405C153.248 207.967 153.557 207.594 153.717 207.285C153.877 206.965 153.957 206.65 153.957 206.341C153.957 205.893 153.803 205.551 153.493 205.317C153.195 205.071 152.752 204.949 152.165 204.949C151.675 204.949 151.232 205.045 150.837 205.237C150.443 205.418 150.112 205.695 149.845 206.069L147.957 204.853C148.395 204.202 148.997 203.695 149.765 203.333C150.533 202.959 151.413 202.773 152.405 202.773C153.237 202.773 153.963 202.911 154.581 203.189C155.211 203.455 155.696 203.839 156.037 204.341C156.389 204.831 156.565 205.413 156.565 206.085C156.565 206.693 156.437 207.263 156.181 207.797C155.925 208.33 155.429 208.938 154.693 209.621L152.117 212.053H156.933Z" fill="#616365"/>
<path d="M28.1974 176.601V187.801H25.6054V178.681H23.3654V176.601H28.1974ZM34.079 176.409C35.647 176.409 36.8737 176.889 37.759 177.849C38.6444 178.798 39.087 180.169 39.087 181.961C39.087 183.23 38.847 184.318 38.367 185.225C37.8977 186.132 37.231 186.82 36.367 187.289C35.503 187.758 34.5057 187.993 33.375 187.993C32.7777 187.993 32.207 187.929 31.663 187.801C31.119 187.662 30.655 187.47 30.271 187.225L31.231 185.321C31.775 185.694 32.4737 185.881 33.327 185.881C34.2764 185.881 35.0284 185.604 35.583 185.049C36.1377 184.484 36.4364 183.673 36.479 182.617C35.807 183.289 34.879 183.625 33.695 183.625C32.9804 183.625 32.3297 183.481 31.743 183.193C31.1564 182.905 30.6924 182.5 30.351 181.977C30.0097 181.444 29.839 180.83 29.839 180.137C29.839 179.39 30.0257 178.734 30.399 178.169C30.7724 177.604 31.279 177.172 31.919 176.873C32.5697 176.564 33.2897 176.409 34.079 176.409ZM34.271 181.689C34.8364 181.689 35.295 181.534 35.647 181.225C36.0097 180.905 36.191 180.5 36.191 180.009C36.191 179.518 36.015 179.118 35.663 178.809C35.3217 178.5 34.847 178.345 34.239 178.345C33.6844 178.345 33.231 178.494 32.879 178.793C32.5377 179.092 32.367 179.497 32.367 180.009C32.367 180.521 32.5377 180.932 32.879 181.241C33.231 181.54 33.695 181.689 34.271 181.689Z" fill="#616365"/>
<path d="M5.20478 122.39C6.77278 122.39 7.99944 122.87 8.88478 123.83C9.77011 124.779 10.2128 126.15 10.2128 127.942C10.2128 129.211 9.97278 130.299 9.49278 131.206C9.02344 132.113 8.35678 132.801 7.49278 133.27C6.62878 133.739 5.63144 133.974 4.50078 133.974C3.90344 133.974 3.33278 133.91 2.78878 133.782C2.24478 133.643 1.78078 133.451 1.39678 133.206L2.35678 131.302C2.90078 131.675 3.59944 131.862 4.45278 131.862C5.40211 131.862 6.15411 131.585 6.70878 131.03C7.26344 130.465 7.56211 129.654 7.60478 128.598C6.93278 129.27 6.00478 129.606 4.82078 129.606C4.10611 129.606 3.45544 129.462 2.86878 129.174C2.28211 128.886 1.81811 128.481 1.47678 127.958C1.13544 127.425 0.964775 126.811 0.964775 126.118C0.964775 125.371 1.15144 124.715 1.52478 124.15C1.89811 123.585 2.40478 123.153 3.04478 122.854C3.69544 122.545 4.41544 122.39 5.20478 122.39ZM5.39678 127.67C5.96211 127.67 6.42078 127.515 6.77278 127.206C7.13544 126.886 7.31678 126.481 7.31678 125.99C7.31678 125.499 7.14078 125.099 6.78878 124.79C6.44744 124.481 5.97278 124.326 5.36478 124.326C4.81011 124.326 4.35678 124.475 4.00478 124.774C3.66344 125.073 3.49278 125.478 3.49278 125.99C3.49278 126.502 3.66344 126.913 4.00478 127.222C4.35678 127.521 4.82078 127.67 5.39678 127.67Z" fill="#616365"/>
<path d="M16.4425 74.8371C16.9972 75.1144 17.4185 75.4771 17.7065 75.9251C18.0052 76.3731 18.1545 76.8904 18.1545 77.4771C18.1545 78.1704 17.9572 78.7784 17.5625 79.3011C17.1679 79.8131 16.6132 80.2131 15.8985 80.5011C15.1839 80.7784 14.3572 80.9171 13.4185 80.9171C12.4799 80.9171 11.6532 80.7784 10.9385 80.5011C10.2345 80.2131 9.68521 79.8131 9.29054 79.3011C8.90654 78.7784 8.71454 78.1704 8.71454 77.4771C8.71454 76.8904 8.85854 76.3731 9.14654 75.9251C9.44521 75.4771 9.86654 75.1144 10.4105 74.8371C9.99454 74.5811 9.67454 74.2611 9.45054 73.8771C9.22654 73.4824 9.11454 73.0344 9.11454 72.5331C9.11454 71.8824 9.29587 71.3171 9.65854 70.8371C10.0212 70.3571 10.5279 69.9891 11.1785 69.7331C11.8292 69.4664 12.5759 69.3331 13.4185 69.3331C14.2719 69.3331 15.0239 69.4664 15.6745 69.7331C16.3359 69.9891 16.8479 70.3571 17.2105 70.8371C17.5732 71.3171 17.7545 71.8824 17.7545 72.5331C17.7545 73.0344 17.6425 73.4824 17.4185 73.8771C17.1945 74.2611 16.8692 74.5811 16.4425 74.8371ZM13.4185 71.2371C12.8959 71.2371 12.4745 71.3651 12.1545 71.6211C11.8452 71.8664 11.6905 72.2078 11.6905 72.6451C11.6905 73.0718 11.8452 73.4078 12.1545 73.6531C12.4639 73.8984 12.8852 74.0211 13.4185 74.0211C13.9519 74.0211 14.3785 73.8984 14.6985 73.6531C15.0185 73.4078 15.1785 73.0718 15.1785 72.6451C15.1785 72.2078 15.0185 71.8664 14.6985 71.6211C14.3785 71.3651 13.9519 71.2371 13.4185 71.2371ZM13.4185 79.0131C14.0692 79.0131 14.5812 78.8691 14.9545 78.5811C15.3385 78.2824 15.5305 77.8878 15.5305 77.3971C15.5305 76.9064 15.3385 76.5171 14.9545 76.2291C14.5812 75.9411 14.0692 75.7971 13.4185 75.7971C12.7785 75.7971 12.2719 75.9411 11.8985 76.2291C11.5252 76.5171 11.3385 76.9064 11.3385 77.3971C11.3385 77.8984 11.5252 78.2931 11.8985 78.5811C12.2719 78.8691 12.7785 79.0131 13.4185 79.0131Z" fill="#616365"/>
<path d="M41.7194 31.5469V33.2269L37.5594 42.7469H34.7434L38.7594 33.6589H35.0474V35.4829H32.7434V31.5469H41.7194Z" fill="#616365"/>
<path d="M83.653 8.59114V10.2711L79.493 19.7911H76.677L80.693 10.7031H76.981V12.5271H74.677V8.59114H83.653Z" fill="#616365"/>
<path d="M103.53 8.83949C104.511 8.99949 105.263 9.36749 105.786 9.94349C106.308 10.5088 106.57 11.2128 106.57 12.0555C106.57 12.7062 106.399 13.3088 106.058 13.8635C105.716 14.4075 105.194 14.8448 104.49 15.1755C103.796 15.5062 102.943 15.6715 101.93 15.6715C101.14 15.6715 100.362 15.5702 99.5936 15.3675C98.8363 15.1542 98.1909 14.8555 97.6576 14.4715L98.6656 12.4875C99.0923 12.8075 99.5829 13.0582 100.138 13.2395C100.703 13.4102 101.279 13.4955 101.866 13.4955C102.516 13.4955 103.028 13.3728 103.402 13.1275C103.775 12.8715 103.962 12.5142 103.962 12.0555C103.962 11.1382 103.263 10.6795 101.866 10.6795H100.682V8.96749L102.986 6.35949H98.2176V4.27949H106.058V5.95949L103.53 8.83949Z" fill="#616365"/>
<path fill-rule="evenodd" clip-rule="evenodd" d="M152.551 116.65C152.551 140.61 133.126 160.033 109.169 160.033C85.2103 160.033 65.7866 140.61 65.7866 116.65C65.7866 92.693 85.2103 73.2683 109.169 73.2683C133.126 73.2683 152.551 92.693 152.551 116.65" fill="white"/>
<path d="M271.363 43.6567C271.091 43.2407 270.783 42.8287 270.439 42.4207C270.103 42.0127 269.747 41.6287 269.371 41.2687C268.995 40.9087 268.611 40.5807 268.219 40.2847C267.835 39.9887 267.463 39.7407 267.103 39.5407V43.6567H266.287V35.3407H267.103V39.2167C267.407 38.9447 267.743 38.6327 268.111 38.2807C268.487 37.9207 268.855 37.5607 269.215 37.2007C269.583 36.8407 269.927 36.4967 270.247 36.1687C270.567 35.8407 270.823 35.5647 271.015 35.3407H271.999C271.767 35.5887 271.487 35.8847 271.159 36.2287C270.831 36.5647 270.483 36.9127 270.115 37.2727C269.747 37.6327 269.379 37.9887 269.011 38.3407C268.651 38.6847 268.327 38.9887 268.039 39.2527C268.271 39.3967 268.519 39.5767 268.783 39.7927C269.055 40.0007 269.327 40.2327 269.599 40.4887C269.879 40.7367 270.151 41.0007 270.415 41.2807C270.687 41.5527 270.939 41.8287 271.171 42.1087C271.411 42.3887 271.623 42.6607 271.807 42.9247C271.999 43.1887 272.155 43.4327 272.275 43.6567H271.363ZM278.621 40.5607C278.621 41.0487 278.549 41.4927 278.405 41.8927C278.269 42.2927 278.073 42.6327 277.817 42.9127C277.569 43.1927 277.273 43.4127 276.929 43.5727C276.585 43.7247 276.205 43.8007 275.789 43.8007C275.373 43.8007 274.993 43.7247 274.649 43.5727C274.305 43.4127 274.005 43.1927 273.749 42.9127C273.501 42.6327 273.305 42.2927 273.161 41.8927C273.025 41.4927 272.957 41.0487 272.957 40.5607C272.957 40.0727 273.025 39.6287 273.161 39.2287C273.305 38.8287 273.501 38.4887 273.749 38.2087C274.005 37.9207 274.305 37.7007 274.649 37.5487C274.993 37.3887 275.373 37.3087 275.789 37.3087C276.205 37.3087 276.585 37.3887 276.929 37.5487C277.273 37.7007 277.569 37.9207 277.817 38.2087C278.073 38.4887 278.269 38.8287 278.405 39.2287C278.549 39.6287 278.621 40.0727 278.621 40.5607ZM277.793 40.5607C277.793 39.7847 277.613 39.1687 277.253 38.7127C276.893 38.2487 276.405 38.0167 275.789 38.0167C275.173 38.0167 274.685 38.2487 274.325 38.7127C273.965 39.1687 273.785 39.7847 273.785 40.5607C273.785 41.3367 273.965 41.9527 274.325 42.4087C274.685 42.8647 275.173 43.0927 275.789 43.0927C276.405 43.0927 276.893 42.8647 277.253 42.4087C277.613 41.9527 277.793 41.3367 277.793 40.5607ZM283.253 42.7927C283.205 42.6727 283.133 42.5087 283.037 42.3007C282.941 42.0847 282.833 41.8487 282.713 41.5927C282.601 41.3287 282.477 41.0527 282.341 40.7647C282.205 40.4687 282.069 40.1847 281.933 39.9127C281.805 39.6407 281.681 39.3847 281.561 39.1447C281.441 38.9047 281.337 38.7087 281.249 38.5567C281.145 39.4767 281.069 40.3527 281.021 41.1847C280.973 42.0087 280.933 42.8327 280.901 43.6567H280.169C280.201 42.6247 280.253 41.5847 280.325 40.5367C280.405 39.4887 280.505 38.4607 280.625 37.4527H281.429C281.533 37.6207 281.665 37.8607 281.825 38.1727C281.993 38.4847 282.173 38.8407 282.365 39.2407C282.565 39.6327 282.769 40.0607 282.977 40.5247C283.193 40.9807 283.409 41.4447 283.625 41.9167C283.841 41.4447 284.053 40.9807 284.261 40.5247C284.477 40.0607 284.681 39.6327 284.873 39.2407C285.073 38.8407 285.253 38.4847 285.413 38.1727C285.573 37.8607 285.709 37.6207 285.821 37.4527H286.613C286.733 38.4607 286.829 39.4887 286.901 40.5367C286.981 41.5847 287.037 42.6247 287.069 43.6567H286.325C286.293 42.8327 286.253 42.0087 286.205 41.1847C286.157 40.3527 286.081 39.4767 285.977 38.5567C285.889 38.7167 285.785 38.9167 285.665 39.1567C285.545 39.3887 285.417 39.6407 285.281 39.9127C285.153 40.1847 285.021 40.4687 284.885 40.7647C284.749 41.0527 284.621 41.3287 284.501 41.5927C284.389 41.8487 284.285 42.0847 284.189 42.3007C284.093 42.5087 284.021 42.6727 283.973 42.7927H283.253ZM290.941 43.0927C291.245 43.0927 291.509 43.0847 291.733 43.0687C291.965 43.0447 292.161 43.0167 292.321 42.9847V40.8007C292.233 40.7607 292.093 40.7207 291.901 40.6807C291.709 40.6327 291.445 40.6087 291.109 40.6087C290.917 40.6087 290.717 40.6247 290.509 40.6567C290.301 40.6807 290.109 40.7407 289.933 40.8367C289.757 40.9247 289.613 41.0487 289.501 41.2087C289.389 41.3687 289.333 41.5807 289.333 41.8447C289.333 42.0767 289.369 42.2727 289.441 42.4327C289.521 42.5927 289.629 42.7207 289.765 42.8167C289.909 42.9127 290.077 42.9847 290.269 43.0327C290.469 43.0727 290.693 43.0927 290.941 43.0927ZM290.869 37.3087C291.277 37.3087 291.621 37.3687 291.901 37.4887C292.189 37.6007 292.421 37.7607 292.597 37.9687C292.773 38.1687 292.901 38.4087 292.981 38.6887C293.061 38.9687 293.101 39.2727 293.101 39.6007V43.5127C293.021 43.5367 292.905 43.5647 292.753 43.5967C292.601 43.6207 292.425 43.6487 292.225 43.6807C292.025 43.7127 291.801 43.7367 291.553 43.7527C291.313 43.7767 291.065 43.7887 290.809 43.7887C290.481 43.7887 290.177 43.7527 289.897 43.6807C289.625 43.6087 289.385 43.4967 289.177 43.3447C288.977 43.1847 288.817 42.9847 288.697 42.7447C288.585 42.4967 288.529 42.1967 288.529 41.8447C288.529 41.5087 288.593 41.2207 288.721 40.9807C288.849 40.7407 289.029 40.5447 289.261 40.3927C289.493 40.2327 289.769 40.1167 290.089 40.0447C290.409 39.9727 290.757 39.9367 291.133 39.9367C291.245 39.9367 291.361 39.9447 291.481 39.9607C291.609 39.9687 291.729 39.9847 291.841 40.0087C291.961 40.0247 292.061 40.0447 292.141 40.0687C292.229 40.0847 292.289 40.1007 292.321 40.1167V39.7327C292.321 39.5167 292.305 39.3087 292.273 39.1087C292.241 38.9007 292.169 38.7167 292.057 38.5567C291.953 38.3887 291.801 38.2567 291.601 38.1607C291.409 38.0567 291.153 38.0047 290.833 38.0047C290.377 38.0047 290.037 38.0367 289.813 38.1007C289.589 38.1647 289.425 38.2167 289.321 38.2567L289.213 37.5727C289.349 37.5087 289.557 37.4487 289.837 37.3927C290.125 37.3367 290.469 37.3087 290.869 37.3087ZM300.023 43.6567H299.243V40.7647H295.871V43.6567H295.091V37.4527H295.871V40.1047H299.243V37.4527H300.023V43.6567ZM306.311 38.4487C306.071 38.7367 305.791 39.1007 305.471 39.5407C305.159 39.9807 304.839 40.4447 304.511 40.9327C304.191 41.4207 303.883 41.9047 303.587 42.3847C303.291 42.8647 303.035 43.2887 302.819 43.6567H302.087V37.4527H302.855V42.4207C303.047 42.0767 303.283 41.6807 303.563 41.2327C303.851 40.7767 304.155 40.3207 304.475 39.8647C304.795 39.4007 305.115 38.9567 305.435 38.5327C305.763 38.1087 306.067 37.7487 306.347 37.4527H307.079V43.6567H306.311V38.4487ZM310.749 41.1247C310.629 41.3087 310.497 41.5087 310.353 41.7247C310.217 41.9407 310.081 42.1607 309.945 42.3847C309.817 42.6087 309.693 42.8327 309.573 43.0567C309.453 43.2727 309.353 43.4727 309.273 43.6567H308.469C308.677 43.1847 308.929 42.7087 309.225 42.2287C309.521 41.7487 309.797 41.3287 310.053 40.9687C309.893 40.9207 309.737 40.8527 309.585 40.7647C309.441 40.6767 309.309 40.5647 309.189 40.4287C309.077 40.2927 308.985 40.1327 308.913 39.9487C308.841 39.7567 308.805 39.5407 308.805 39.3007C308.805 38.9567 308.869 38.6607 308.997 38.4127C309.133 38.1647 309.313 37.9607 309.537 37.8007C309.769 37.6407 310.041 37.5207 310.353 37.4407C310.673 37.3607 311.013 37.3207 311.373 37.3207C311.533 37.3207 311.709 37.3287 311.901 37.3447C312.101 37.3607 312.297 37.3847 312.489 37.4167C312.689 37.4407 312.873 37.4687 313.041 37.5007C313.209 37.5327 313.349 37.5647 313.461 37.5967V43.6567H312.681V41.1607H311.565C311.389 41.1607 311.229 41.1607 311.085 41.1607C310.949 41.1527 310.837 41.1407 310.749 41.1247ZM312.681 38.1247C312.585 38.1007 312.429 38.0767 312.213 38.0527C311.997 38.0207 311.721 38.0047 311.385 38.0047C311.161 38.0047 310.941 38.0287 310.725 38.0767C310.517 38.1167 310.329 38.1887 310.161 38.2927C309.993 38.3967 309.857 38.5327 309.753 38.7007C309.657 38.8607 309.609 39.0607 309.609 39.3007C309.609 39.5327 309.653 39.7287 309.741 39.8887C309.829 40.0407 309.953 40.1647 310.113 40.2607C310.273 40.3487 310.465 40.4127 310.689 40.4527C310.921 40.4927 311.177 40.5127 311.457 40.5127H312.681V38.1247ZM318.511 37.0447C318.991 36.8767 319.419 36.6647 319.795 36.4087C320.171 36.1447 320.543 35.7887 320.911 35.3407H321.463V43.6567H320.683V36.5287C320.595 36.6247 320.479 36.7247 320.335 36.8287C320.199 36.9327 320.043 37.0367 319.867 37.1407C319.691 37.2367 319.507 37.3327 319.315 37.4287C319.123 37.5167 318.931 37.5887 318.739 37.6447L318.511 37.0447Z" fill="#231F20"/>
<path fill-rule="evenodd" clip-rule="evenodd" d="M245.822 45.4406H257.392V33.8728H245.822V45.4406Z" fill="#CE1126"/>
<path d="M271.363 63.6567C271.091 63.2407 270.783 62.8287 270.439 62.4207C270.103 62.0127 269.747 61.6287 269.371 61.2687C268.995 60.9087 268.611 60.5807 268.219 60.2847C267.835 59.9887 267.463 59.7407 267.103 59.5407V63.6567H266.287V55.3407H267.103V59.2167C267.407 58.9447 267.743 58.6327 268.111 58.2807C268.487 57.9207 268.855 57.5607 269.215 57.2007C269.583 56.8407 269.927 56.4967 270.247 56.1687C270.567 55.8407 270.823 55.5647 271.015 55.3407H271.999C271.767 55.5887 271.487 55.8847 271.159 56.2287C270.831 56.5647 270.483 56.9127 270.115 57.2727C269.747 57.6327 269.379 57.9887 269.011 58.3407C268.651 58.6847 268.327 58.9887 268.039 59.2527C268.271 59.3967 268.519 59.5767 268.783 59.7927C269.055 60.0007 269.327 60.2327 269.599 60.4887C269.879 60.7367 270.151 61.0007 270.415 61.2807C270.687 61.5527 270.939 61.8287 271.171 62.1087C271.411 62.3887 271.623 62.6607 271.807 62.9247C271.999 63.1887 272.155 63.4327 272.275 63.6567H271.363ZM278.621 60.5607C278.621 61.0487 278.549 61.4927 278.405 61.8927C278.269 62.2927 278.073 62.6327 277.817 62.9127C277.569 63.1927 277.273 63.4127 276.929 63.5727C276.585 63.7247 276.205 63.8007 275.789 63.8007C275.373 63.8007 274.993 63.7247 274.649 63.5727C274.305 63.4127 274.005 63.1927 273.749 62.9127C273.501 62.6327 273.305 62.2927 273.161 61.8927C273.025 61.4927 272.957 61.0487 272.957 60.5607C272.957 60.0727 273.025 59.6287 273.161 59.2287C273.305 58.8287 273.501 58.4887 273.749 58.2087C274.005 57.9207 274.305 57.7007 274.649 57.5487C274.993 57.3887 275.373 57.3087 275.789 57.3087C276.205 57.3087 276.585 57.3887 276.929 57.5487C277.273 57.7007 277.569 57.9207 277.817 58.2087C278.073 58.4887 278.269 58.8287 278.405 59.2287C278.549 59.6287 278.621 60.0727 278.621 60.5607ZM277.793 60.5607C277.793 59.7847 277.613 59.1687 277.253 58.7127C276.893 58.2487 276.405 58.0167 275.789 58.0167C275.173 58.0167 274.685 58.2487 274.325 58.7127C273.965 59.1687 273.785 59.7847 273.785 60.5607C273.785 61.3367 273.965 61.9527 274.325 62.4087C274.685 62.8647 275.173 63.0927 275.789 63.0927C276.405 63.0927 276.893 62.8647 277.253 62.4087C277.613 61.9527 277.793 61.3367 277.793 60.5607ZM283.253 62.7927C283.205 62.6727 283.133 62.5087 283.037 62.3007C282.941 62.0847 282.833 61.8487 282.713 61.5927C282.601 61.3287 282.477 61.0527 282.341 60.7647C282.205 60.4687 282.069 60.1847 281.933 59.9127C281.805 59.6407 281.681 59.3847 281.561 59.1447C281.441 58.9047 281.337 58.7087 281.249 58.5567C281.145 59.4767 281.069 60.3527 281.021 61.1847C280.973 62.0087 280.933 62.8327 280.901 63.6567H280.169C280.201 62.6247 280.253 61.5847 280.325 60.5367C280.405 59.4887 280.505 58.4607 280.625 57.4527H281.429C281.533 57.6207 281.665 57.8607 281.825 58.1727C281.993 58.4847 282.173 58.8407 282.365 59.2407C282.565 59.6327 282.769 60.0607 282.977 60.5247C283.193 60.9807 283.409 61.4447 283.625 61.9167C283.841 61.4447 284.053 60.9807 284.261 60.5247C284.477 60.0607 284.681 59.6327 284.873 59.2407C285.073 58.8407 285.253 58.4847 285.413 58.1727C285.573 57.8607 285.709 57.6207 285.821 57.4527H286.613C286.733 58.4607 286.829 59.4887 286.901 60.5367C286.981 61.5847 287.037 62.6247 287.069 63.6567H286.325C286.293 62.8327 286.253 62.0087 286.205 61.1847C286.157 60.3527 286.081 59.4767 285.977 58.5567C285.889 58.7167 285.785 58.9167 285.665 59.1567C285.545 59.3887 285.417 59.6407 285.281 59.9127C285.153 60.1847 285.021 60.4687 284.885 60.7647C284.749 61.0527 284.621 61.3287 284.501 61.5927C284.389 61.8487 284.285 62.0847 284.189 62.3007C284.093 62.5087 284.021 62.6727 283.973 62.7927H283.253ZM290.941 63.0927C291.245 63.0927 291.509 63.0847 291.733 63.0687C291.965 63.0447 292.161 63.0167 292.321 62.9847V60.8007C292.233 60.7607 292.093 60.7207 291.901 60.6807C291.709 60.6327 291.445 60.6087 291.109 60.6087C290.917 60.6087 290.717 60.6247 290.509 60.6567C290.301 60.6807 290.109 60.7407 289.933 60.8367C289.757 60.9247 289.613 61.0487 289.501 61.2087C289.389 61.3687 289.333 61.5807 289.333 61.8447C289.333 62.0767 289.369 62.2727 289.441 62.4327C289.521 62.5927 289.629 62.7207 289.765 62.8167C289.909 62.9127 290.077 62.9847 290.269 63.0327C290.469 63.0727 290.693 63.0927 290.941 63.0927ZM290.869 57.3087C291.277 57.3087 291.621 57.3687 291.901 57.4887C292.189 57.6007 292.421 57.7607 292.597 57.9687C292.773 58.1687 292.901 58.4087 292.981 58.6887C293.061 58.9687 293.101 59.2727 293.101 59.6007V63.5127C293.021 63.5367 292.905 63.5647 292.753 63.5967C292.601 63.6207 292.425 63.6487 292.225 63.6807C292.025 63.7127 291.801 63.7367 291.553 63.7527C291.313 63.7767 291.065 63.7887 290.809 63.7887C290.481 63.7887 290.177 63.7527 289.897 63.6807C289.625 63.6087 289.385 63.4967 289.177 63.3447C288.977 63.1847 288.817 62.9847 288.697 62.7447C288.585 62.4967 288.529 62.1967 288.529 61.8447C288.529 61.5087 288.593 61.2207 288.721 60.9807C288.849 60.7407 289.029 60.5447 289.261 60.3927C289.493 60.2327 289.769 60.1167 290.089 60.0447C290.409 59.9727 290.757 59.9367 291.133 59.9367C291.245 59.9367 291.361 59.9447 291.481 59.9607C291.609 59.9687 291.729 59.9847 291.841 60.0087C291.961 60.0247 292.061 60.0447 292.141 60.0687C292.229 60.0847 292.289 60.1007 292.321 60.1167V59.7327C292.321 59.5167 292.305 59.3087 292.273 59.1087C292.241 58.9007 292.169 58.7167 292.057 58.5567C291.953 58.3887 291.801 58.2567 291.601 58.1607C291.409 58.0567 291.153 58.0047 290.833 58.0047C290.377 58.0047 290.037 58.0367 289.813 58.1007C289.589 58.1647 289.425 58.2167 289.321 58.2567L289.213 57.5727C289.349 57.5087 289.557 57.4487 289.837 57.3927C290.125 57.3367 290.469 57.3087 290.869 57.3087ZM300.023 63.6567H299.243V60.7647H295.871V63.6567H295.091V57.4527H295.871V60.1047H299.243V57.4527H300.023V63.6567ZM306.311 58.4487C306.071 58.7367 305.791 59.1007 305.471 59.5407C305.159 59.9807 304.839 60.4447 304.511 60.9327C304.191 61.4207 303.883 61.9047 303.587 62.3847C303.291 62.8647 303.035 63.2887 302.819 63.6567H302.087V57.4527H302.855V62.4207C303.047 62.0767 303.283 61.6807 303.563 61.2327C303.851 60.7767 304.155 60.3207 304.475 59.8647C304.795 59.4007 305.115 58.9567 305.435 58.5327C305.763 58.1087 306.067 57.7487 306.347 57.4527H307.079V63.6567H306.311V58.4487ZM310.749 61.1247C310.629 61.3087 310.497 61.5087 310.353 61.7247C310.217 61.9407 310.081 62.1607 309.945 62.3847C309.817 62.6087 309.693 62.8327 309.573 63.0567C309.453 63.2727 309.353 63.4727 309.273 63.6567H308.469C308.677 63.1847 308.929 62.7087 309.225 62.2287C309.521 61.7487 309.797 61.3287 310.053 60.9687C309.893 60.9207 309.737 60.8527 309.585 60.7647C309.441 60.6767 309.309 60.5647 309.189 60.4287C309.077 60.2927 308.985 60.1327 308.913 59.9487C308.841 59.7567 308.805 59.5407 308.805 59.3007C308.805 58.9567 308.869 58.6607 308.997 58.4127C309.133 58.1647 309.313 57.9607 309.537 57.8007C309.769 57.6407 310.041 57.5207 310.353 57.4407C310.673 57.3607 311.013 57.3207 311.373 57.3207C311.533 57.3207 311.709 57.3287 311.901 57.3447C312.101 57.3607 312.297 57.3847 312.489 57.4167C312.689 57.4407 312.873 57.4687 313.041 57.5007C313.209 57.5327 313.349 57.5647 313.461 57.5967V63.6567H312.681V61.1607H311.565C311.389 61.1607 311.229 61.1607 311.085 61.1607C310.949 61.1527 310.837 61.1407 310.749 61.1247ZM312.681 58.1247C312.585 58.1007 312.429 58.0767 312.213 58.0527C311.997 58.0207 311.721 58.0047 311.385 58.0047C311.161 58.0047 310.941 58.0287 310.725 58.0767C310.517 58.1167 310.329 58.1887 310.161 58.2927C309.993 58.3967 309.857 58.5327 309.753 58.7007C309.657 58.8607 309.609 59.0607 309.609 59.3007C309.609 59.5327 309.653 59.7287 309.741 59.8887C309.829 60.0407 309.953 60.1647 310.113 60.2607C310.273 60.3487 310.465 60.4127 310.689 60.4527C310.921 60.4927 311.177 60.5127 311.457 60.5127H312.681V58.1247ZM322.699 57.4047C322.699 57.7167 322.643 58.0127 322.531 58.2927C322.419 58.5647 322.267 58.8287 322.075 59.0847C321.891 59.3407 321.679 59.5887 321.439 59.8287C321.199 60.0687 320.955 60.3087 320.707 60.5487C320.499 60.7487 320.295 60.9527 320.095 61.1607C319.903 61.3607 319.727 61.5647 319.567 61.7727C319.415 61.9727 319.291 62.1727 319.195 62.3727C319.107 62.5647 319.063 62.7567 319.063 62.9487V62.9727H322.987V63.6567H318.199C318.199 63.6407 318.195 63.6127 318.187 63.5727C318.187 63.5247 318.187 63.4567 318.187 63.3687C318.187 62.9927 318.255 62.6447 318.391 62.3247C318.527 61.9967 318.699 61.6887 318.907 61.4007C319.123 61.1127 319.359 60.8447 319.615 60.5967C319.879 60.3487 320.131 60.1087 320.371 59.8767C320.571 59.6847 320.759 59.5007 320.935 59.3247C321.119 59.1407 321.279 58.9527 321.415 58.7607C321.551 58.5687 321.659 58.3647 321.739 58.1487C321.819 57.9327 321.859 57.6967 321.859 57.4407C321.859 56.8807 321.707 56.4807 321.403 56.2407C321.107 55.9927 320.731 55.8687 320.275 55.8687C320.019 55.8687 319.791 55.9007 319.591 55.9647C319.391 56.0287 319.215 56.1047 319.063 56.1927C318.919 56.2727 318.795 56.3567 318.691 56.4447C318.587 56.5327 318.511 56.6007 318.463 56.6487L318.055 56.1087C318.103 56.0527 318.187 55.9727 318.307 55.8687C318.435 55.7567 318.591 55.6487 318.775 55.5447C318.967 55.4407 319.187 55.3527 319.435 55.2807C319.683 55.2007 319.959 55.1607 320.263 55.1607C321.071 55.1607 321.679 55.3607 322.087 55.7607C322.495 56.1527 322.699 56.7007 322.699 57.4047Z" fill="#231F20"/>
<path fill-rule="evenodd" clip-rule="evenodd" d="M245.822 65.4406H257.392V53.8728H245.822V65.4406Z" fill="#8B010E"/>
<path d="M271.363 83.6567C271.091 83.2407 270.783 82.8287 270.439 82.4207C270.103 82.0127 269.747 81.6287 269.371 81.2687C268.995 80.9087 268.611 80.5807 268.219 80.2847C267.835 79.9887 267.463 79.7407 267.103 79.5407V83.6567H266.287V75.3407H267.103V79.2167C267.407 78.9447 267.743 78.6327 268.111 78.2807C268.487 77.9207 268.855 77.5607 269.215 77.2007C269.583 76.8407 269.927 76.4967 270.247 76.1687C270.567 75.8407 270.823 75.5647 271.015 75.3407H271.999C271.767 75.5887 271.487 75.8847 271.159 76.2287C270.831 76.5647 270.483 76.9127 270.115 77.2727C269.747 77.6327 269.379 77.9887 269.011 78.3407C268.651 78.6847 268.327 78.9887 268.039 79.2527C268.271 79.3967 268.519 79.5767 268.783 79.7927C269.055 80.0007 269.327 80.2327 269.599 80.4887C269.879 80.7367 270.151 81.0007 270.415 81.2807C270.687 81.5527 270.939 81.8287 271.171 82.1087C271.411 82.3887 271.623 82.6607 271.807 82.9247C271.999 83.1887 272.155 83.4327 272.275 83.6567H271.363ZM278.621 80.5607C278.621 81.0487 278.549 81.4927 278.405 81.8927C278.269 82.2927 278.073 82.6327 277.817 82.9127C277.569 83.1927 277.273 83.4127 276.929 83.5727C276.585 83.7247 276.205 83.8007 275.789 83.8007C275.373 83.8007 274.993 83.7247 274.649 83.5727C274.305 83.4127 274.005 83.1927 273.749 82.9127C273.501 82.6327 273.305 82.2927 273.161 81.8927C273.025 81.4927 272.957 81.0487 272.957 80.5607C272.957 80.0727 273.025 79.6287 273.161 79.2287C273.305 78.8287 273.501 78.4887 273.749 78.2087C274.005 77.9207 274.305 77.7007 274.649 77.5487C274.993 77.3887 275.373 77.3087 275.789 77.3087C276.205 77.3087 276.585 77.3887 276.929 77.5487C277.273 77.7007 277.569 77.9207 277.817 78.2087C278.073 78.4887 278.269 78.8287 278.405 79.2287C278.549 79.6287 278.621 80.0727 278.621 80.5607ZM277.793 80.5607C277.793 79.7847 277.613 79.1687 277.253 78.7127C276.893 78.2487 276.405 78.0167 275.789 78.0167C275.173 78.0167 274.685 78.2487 274.325 78.7127C273.965 79.1687 273.785 79.7847 273.785 80.5607C273.785 81.3367 273.965 81.9527 274.325 82.4087C274.685 82.8647 275.173 83.0927 275.789 83.0927C276.405 83.0927 276.893 82.8647 277.253 82.4087C277.613 81.9527 277.793 81.3367 277.793 80.5607ZM283.253 82.7927C283.205 82.6727 283.133 82.5087 283.037 82.3007C282.941 82.0847 282.833 81.8487 282.713 81.5927C282.601 81.3287 282.477 81.0527 282.341 80.7647C282.205 80.4687 282.069 80.1847 281.933 79.9127C281.805 79.6407 281.681 79.3847 281.561 79.1447C281.441 78.9047 281.337 78.7087 281.249 78.5567C281.145 79.4767 281.069 80.3527 281.021 81.1847C280.973 82.0087 280.933 82.8327 280.901 83.6567H280.169C280.201 82.6247 280.253 81.5847 280.325 80.5367C280.405 79.4887 280.505 78.4607 280.625 77.4527H281.429C281.533 77.6207 281.665 77.8607 281.825 78.1727C281.993 78.4847 282.173 78.8407 282.365 79.2407C282.565 79.6327 282.769 80.0607 282.977 80.5247C283.193 80.9807 283.409 81.4447 283.625 81.9167C283.841 81.4447 284.053 80.9807 284.261 80.5247C284.477 80.0607 284.681 79.6327 284.873 79.2407C285.073 78.8407 285.253 78.4847 285.413 78.1727C285.573 77.8607 285.709 77.6207 285.821 77.4527H286.613C286.733 78.4607 286.829 79.4887 286.901 80.5367C286.981 81.5847 287.037 82.6247 287.069 83.6567H286.325C286.293 82.8327 286.253 82.0087 286.205 81.1847C286.157 80.3527 286.081 79.4767 285.977 78.5567C285.889 78.7167 285.785 78.9167 285.665 79.1567C285.545 79.3887 285.417 79.6407 285.281 79.9127C285.153 80.1847 285.021 80.4687 284.885 80.7647C284.749 81.0527 284.621 81.3287 284.501 81.5927C284.389 81.8487 284.285 82.0847 284.189 82.3007C284.093 82.5087 284.021 82.6727 283.973 82.7927H283.253ZM290.941 83.0927C291.245 83.0927 291.509 83.0847 291.733 83.0687C291.965 83.0447 292.161 83.0167 292.321 82.9847V80.8007C292.233 80.7607 292.093 80.7207 291.901 80.6807C291.709 80.6327 291.445 80.6087 291.109 80.6087C290.917 80.6087 290.717 80.6247 290.509 80.6567C290.301 80.6807 290.109 80.7407 289.933 80.8367C289.757 80.9247 289.613 81.0487 289.501 81.2087C289.389 81.3687 289.333 81.5807 289.333 81.8447C289.333 82.0767 289.369 82.2727 289.441 82.4327C289.521 82.5927 289.629 82.7207 289.765 82.8167C289.909 82.9127 290.077 82.9847 290.269 83.0327C290.469 83.0727 290.693 83.0927 290.941 83.0927ZM290.869 77.3087C291.277 77.3087 291.621 77.3687 291.901 77.4887C292.189 77.6007 292.421 77.7607 292.597 77.9687C292.773 78.1687 292.901 78.4087 292.981 78.6887C293.061 78.9687 293.101 79.2727 293.101 79.6007V83.5127C293.021 83.5367 292.905 83.5647 292.753 83.5967C292.601 83.6207 292.425 83.6487 292.225 83.6807C292.025 83.7127 291.801 83.7367 291.553 83.7527C291.313 83.7767 291.065 83.7887 290.809 83.7887C290.481 83.7887 290.177 83.7527 289.897 83.6807C289.625 83.6087 289.385 83.4967 289.177 83.3447C288.977 83.1847 288.817 82.9847 288.697 82.7447C288.585 82.4967 288.529 82.1967 288.529 81.8447C288.529 81.5087 288.593 81.2207 288.721 80.9807C288.849 80.7407 289.029 80.5447 289.261 80.3927C289.493 80.2327 289.769 80.1167 290.089 80.0447C290.409 79.9727 290.757 79.9367 291.133 79.9367C291.245 79.9367 291.361 79.9447 291.481 79.9607C291.609 79.9687 291.729 79.9847 291.841 80.0087C291.961 80.0247 292.061 80.0447 292.141 80.0687C292.229 80.0847 292.289 80.1007 292.321 80.1167V79.7327C292.321 79.5167 292.305 79.3087 292.273 79.1087C292.241 78.9007 292.169 78.7167 292.057 78.5567C291.953 78.3887 291.801 78.2567 291.601 78.1607C291.409 78.0567 291.153 78.0047 290.833 78.0047C290.377 78.0047 290.037 78.0367 289.813 78.1007C289.589 78.1647 289.425 78.2167 289.321 78.2567L289.213 77.5727C289.349 77.5087 289.557 77.4487 289.837 77.3927C290.125 77.3367 290.469 77.3087 290.869 77.3087ZM300.023 83.6567H299.243V80.7647H295.871V83.6567H295.091V77.4527H295.871V80.1047H299.243V77.4527H300.023V83.6567ZM306.311 78.4487C306.071 78.7367 305.791 79.1007 305.471 79.5407C305.159 79.9807 304.839 80.4447 304.511 80.9327C304.191 81.4207 303.883 81.9047 303.587 82.3847C303.291 82.8647 303.035 83.2887 302.819 83.6567H302.087V77.4527H302.855V82.4207C303.047 82.0767 303.283 81.6807 303.563 81.2327C303.851 80.7767 304.155 80.3207 304.475 79.8647C304.795 79.4007 305.115 78.9567 305.435 78.5327C305.763 78.1087 306.067 77.7487 306.347 77.4527H307.079V83.6567H306.311V78.4487ZM310.749 81.1247C310.629 81.3087 310.497 81.5087 310.353 81.7247C310.217 81.9407 310.081 82.1607 309.945 82.3847C309.817 82.6087 309.693 82.8327 309.573 83.0567C309.453 83.2727 309.353 83.4727 309.273 83.6567H308.469C308.677 83.1847 308.929 82.7087 309.225 82.2287C309.521 81.7487 309.797 81.3287 310.053 80.9687C309.893 80.9207 309.737 80.8527 309.585 80.7647C309.441 80.6767 309.309 80.5647 309.189 80.4287C309.077 80.2927 308.985 80.1327 308.913 79.9487C308.841 79.7567 308.805 79.5407 308.805 79.3007C308.805 78.9567 308.869 78.6607 308.997 78.4127C309.133 78.1647 309.313 77.9607 309.537 77.8007C309.769 77.6407 310.041 77.5207 310.353 77.4407C310.673 77.3607 311.013 77.3207 311.373 77.3207C311.533 77.3207 311.709 77.3287 311.901 77.3447C312.101 77.3607 312.297 77.3847 312.489 77.4167C312.689 77.4407 312.873 77.4687 313.041 77.5007C313.209 77.5327 313.349 77.5647 313.461 77.5967V83.6567H312.681V81.1607H311.565C311.389 81.1607 311.229 81.1607 311.085 81.1607C310.949 81.1527 310.837 81.1407 310.749 81.1247ZM312.681 78.1247C312.585 78.1007 312.429 78.0767 312.213 78.0527C311.997 78.0207 311.721 78.0047 311.385 78.0047C311.161 78.0047 310.941 78.0287 310.725 78.0767C310.517 78.1167 310.329 78.1887 310.161 78.2927C309.993 78.3967 309.857 78.5327 309.753 78.7007C309.657 78.8607 309.609 79.0607 309.609 79.3007C309.609 79.5327 309.653 79.7287 309.741 79.8887C309.829 80.0407 309.953 80.1647 310.113 80.2607C310.273 80.3487 310.465 80.4127 310.689 80.4527C310.921 80.4927 311.177 80.5127 311.457 80.5127H312.681V78.1247ZM320.047 83.1167C320.807 83.1167 321.351 82.9607 321.679 82.6487C322.007 82.3287 322.171 81.9007 322.171 81.3647C322.171 81.0127 322.103 80.7207 321.967 80.4887C321.839 80.2567 321.659 80.0727 321.427 79.9367C321.203 79.7927 320.939 79.6927 320.635 79.6367C320.339 79.5727 320.023 79.5407 319.687 79.5407H319.567V78.8927H319.843C320.059 78.8927 320.279 78.8727 320.503 78.8327C320.735 78.7847 320.943 78.7007 321.127 78.5807C321.319 78.4607 321.475 78.3007 321.595 78.1007C321.723 77.9007 321.787 77.6447 321.787 77.3327C321.787 77.0687 321.743 76.8447 321.655 76.6607C321.567 76.4687 321.447 76.3167 321.295 76.2047C321.151 76.0927 320.979 76.0127 320.779 75.9647C320.587 75.9087 320.383 75.8807 320.167 75.8807C319.735 75.8807 319.399 75.9407 319.159 76.0607C318.919 76.1807 318.723 76.2927 318.571 76.3967L318.235 75.7847C318.315 75.7287 318.415 75.6647 318.535 75.5927C318.663 75.5207 318.811 75.4527 318.979 75.3887C319.147 75.3247 319.331 75.2727 319.531 75.2327C319.739 75.1847 319.963 75.1607 320.203 75.1607C320.619 75.1607 320.975 75.2127 321.271 75.3167C321.575 75.4207 321.827 75.5687 322.027 75.7607C322.227 75.9447 322.375 76.1687 322.471 76.4327C322.567 76.6887 322.615 76.9687 322.615 77.2727C322.615 77.7607 322.483 78.1607 322.219 78.4727C321.963 78.7767 321.631 78.9967 321.223 79.1327C321.447 79.1887 321.663 79.2767 321.871 79.3967C322.087 79.5087 322.279 79.6567 322.447 79.8407C322.615 80.0167 322.751 80.2327 322.855 80.4887C322.959 80.7447 323.011 81.0447 323.011 81.3887C323.011 81.7407 322.947 82.0647 322.819 82.3607C322.699 82.6567 322.515 82.9167 322.267 83.1407C322.027 83.3567 321.719 83.5287 321.343 83.6567C320.967 83.7767 320.527 83.8367 320.023 83.8367C319.759 83.8367 319.515 83.8167 319.291 83.7767C319.075 83.7447 318.883 83.7047 318.715 83.6567C318.547 83.6087 318.403 83.5607 318.283 83.5127C318.171 83.4647 318.087 83.4247 318.031 83.3927L318.235 82.6967C318.283 82.7287 318.363 82.7687 318.475 82.8167C318.587 82.8647 318.719 82.9127 318.871 82.9607C319.031 83.0007 319.207 83.0367 319.399 83.0687C319.599 83.1007 319.815 83.1167 320.047 83.1167Z" fill="#231F20"/>
<path fill-rule="evenodd" clip-rule="evenodd" d="M245.822 85.4406H257.392V73.8728H245.822V85.4406Z" fill="#3E0000"/>
<path d="M271.338 103.657C271.066 103.241 270.758 102.829 270.414 102.421C270.078 102.013 269.722 101.629 269.346 101.269C268.97 100.909 268.586 100.581 268.194 100.285C267.81 99.9887 267.438 99.7407 267.078 99.5407V103.657H266.262V95.3407H267.078V99.2167C267.382 98.9447 267.718 98.6327 268.086 98.2807C268.462 97.9207 268.83 97.5607 269.19 97.2007C269.558 96.8407 269.902 96.4967 270.222 96.1687C270.542 95.8407 270.798 95.5647 270.99 95.3407H271.974C271.742 95.5887 271.462 95.8847 271.134 96.2287C270.806 96.5647 270.458 96.9127 270.09 97.2727C269.722 97.6327 269.354 97.9887 268.986 98.3407C268.626 98.6847 268.302 98.9887 268.014 99.2527C268.246 99.3967 268.494 99.5767 268.758 99.7927C269.03 100.001 269.302 100.233 269.574 100.489C269.854 100.737 270.126 101.001 270.39 101.281C270.662 101.553 270.914 101.829 271.146 102.109C271.386 102.389 271.598 102.661 271.782 102.925C271.974 103.189 272.13 103.433 272.25 103.657H271.338ZM278.596 100.561C278.596 101.049 278.524 101.493 278.38 101.893C278.244 102.293 278.048 102.633 277.792 102.913C277.544 103.193 277.248 103.413 276.904 103.573C276.56 103.725 276.18 103.801 275.764 103.801C275.348 103.801 274.968 103.725 274.624 103.573C274.28 103.413 273.98 103.193 273.724 102.913C273.476 102.633 273.28 102.293 273.136 101.893C273 101.493 272.932 101.049 272.932 100.561C272.932 100.073 273 99.6287 273.136 99.2287C273.28 98.8287 273.476 98.4887 273.724 98.2087C273.98 97.9207 274.28 97.7007 274.624 97.5487C274.968 97.3887 275.348 97.3087 275.764 97.3087C276.18 97.3087 276.56 97.3887 276.904 97.5487C277.248 97.7007 277.544 97.9207 277.792 98.2087C278.048 98.4887 278.244 98.8287 278.38 99.2287C278.524 99.6287 278.596 100.073 278.596 100.561ZM277.768 100.561C277.768 99.7847 277.588 99.1687 277.228 98.7127C276.868 98.2487 276.38 98.0167 275.764 98.0167C275.148 98.0167 274.66 98.2487 274.3 98.7127C273.94 99.1687 273.76 99.7847 273.76 100.561C273.76 101.337 273.94 101.953 274.3 102.409C274.66 102.865 275.148 103.093 275.764 103.093C276.38 103.093 276.868 102.865 277.228 102.409C277.588 101.953 277.768 101.337 277.768 100.561ZM283.229 102.793C283.181 102.673 283.109 102.509 283.013 102.301C282.917 102.085 282.809 101.849 282.689 101.593C282.577 101.329 282.453 101.053 282.317 100.765C282.181 100.469 282.045 100.185 281.909 99.9127C281.781 99.6407 281.657 99.3847 281.537 99.1447C281.417 98.9047 281.313 98.7087 281.225 98.5567C281.121 99.4767 281.045 100.353 280.997 101.185C280.949 102.009 280.909 102.833 280.877 103.657H280.145C280.177 102.625 280.229 101.585 280.301 100.537C280.381 99.4887 280.481 98.4607 280.601 97.4527H281.405C281.509 97.6207 281.641 97.8607 281.801 98.1727C281.969 98.4847 282.149 98.8407 282.341 99.2407C282.541 99.6327 282.745 100.061 282.953 100.525C283.169 100.981 283.385 101.445 283.601 101.917C283.817 101.445 284.029 100.981 284.237 100.525C284.453 100.061 284.657 99.6327 284.849 99.2407C285.049 98.8407 285.229 98.4847 285.389 98.1727C285.549 97.8607 285.685 97.6207 285.797 97.4527H286.589C286.709 98.4607 286.805 99.4887 286.877 100.537C286.957 101.585 287.013 102.625 287.045 103.657H286.301C286.269 102.833 286.229 102.009 286.181 101.185C286.133 100.353 286.057 99.4767 285.953 98.5567C285.865 98.7167 285.761 98.9167 285.641 99.1567C285.521 99.3887 285.393 99.6407 285.257 99.9127C285.129 100.185 284.997 100.469 284.861 100.765C284.725 101.053 284.597 101.329 284.477 101.593C284.365 101.849 284.261 102.085 284.165 102.301C284.069 102.509 283.997 102.673 283.949 102.793H283.229ZM290.916 103.093C291.22 103.093 291.484 103.085 291.708 103.069C291.94 103.045 292.136 103.017 292.296 102.985V100.801C292.208 100.761 292.068 100.721 291.876 100.681C291.684 100.633 291.42 100.609 291.084 100.609C290.892 100.609 290.692 100.625 290.484 100.657C290.276 100.681 290.084 100.741 289.908 100.837C289.732 100.925 289.588 101.049 289.476 101.209C289.364 101.369 289.308 101.581 289.308 101.845C289.308 102.077 289.344 102.273 289.416 102.433C289.496 102.593 289.604 102.721 289.74 102.817C289.884 102.913 290.052 102.985 290.244 103.033C290.444 103.073 290.668 103.093 290.916 103.093ZM290.844 97.3087C291.252 97.3087 291.596 97.3687 291.876 97.4887C292.164 97.6007 292.396 97.7607 292.572 97.9687C292.748 98.1687 292.876 98.4087 292.956 98.6887C293.036 98.9687 293.076 99.2727 293.076 99.6007V103.513C292.996 103.537 292.88 103.565 292.728 103.597C292.576 103.621 292.4 103.649 292.2 103.681C292 103.713 291.776 103.737 291.528 103.753C291.288 103.777 291.04 103.789 290.784 103.789C290.456 103.789 290.152 103.753 289.872 103.681C289.6 103.609 289.36 103.497 289.152 103.345C288.952 103.185 288.792 102.985 288.672 102.745C288.56 102.497 288.504 102.197 288.504 101.845C288.504 101.509 288.568 101.221 288.696 100.981C288.824 100.741 289.004 100.545 289.236 100.393C289.468 100.233 289.744 100.117 290.064 100.045C290.384 99.9727 290.732 99.9367 291.108 99.9367C291.22 99.9367 291.336 99.9447 291.456 99.9607C291.584 99.9687 291.704 99.9847 291.816 100.009C291.936 100.025 292.036 100.045 292.116 100.069C292.204 100.085 292.264 100.101 292.296 100.117V99.7327C292.296 99.5167 292.28 99.3087 292.248 99.1087C292.216 98.9007 292.144 98.7167 292.032 98.5567C291.928 98.3887 291.776 98.2567 291.576 98.1607C291.384 98.0567 291.128 98.0047 290.808 98.0047C290.352 98.0047 290.012 98.0367 289.788 98.1007C289.564 98.1647 289.4 98.2167 289.296 98.2567L289.188 97.5727C289.324 97.5087 289.532 97.4487 289.812 97.3927C290.1 97.3367 290.444 97.3087 290.844 97.3087ZM299.998 103.657H299.218V100.765H295.846V103.657H295.066V97.4527H295.846V100.105H299.218V97.4527H299.998V103.657ZM306.286 98.4487C306.046 98.7367 305.766 99.1007 305.446 99.5407C305.134 99.9807 304.814 100.445 304.486 100.933C304.166 101.421 303.858 101.905 303.562 102.385C303.266 102.865 303.01 103.289 302.794 103.657H302.062V97.4527H302.83V102.421C303.022 102.077 303.258 101.681 303.538 101.233C303.826 100.777 304.13 100.321 304.45 99.8647C304.77 99.4007 305.09 98.9567 305.41 98.5327C305.738 98.1087 306.042 97.7487 306.322 97.4527H307.054V103.657H306.286V98.4487ZM310.725 101.125C310.605 101.309 310.473 101.509 310.329 101.725C310.193 101.941 310.057 102.161 309.921 102.385C309.793 102.609 309.669 102.833 309.549 103.057C309.429 103.273 309.329 103.473 309.249 103.657H308.445C308.653 103.185 308.905 102.709 309.201 102.229C309.497 101.749 309.773 101.329 310.029 100.969C309.869 100.921 309.713 100.853 309.561 100.765C309.417 100.677 309.285 100.565 309.165 100.429C309.053 100.293 308.961 100.133 308.889 99.9487C308.817 99.7567 308.781 99.5407 308.781 99.3007C308.781 98.9567 308.845 98.6607 308.973 98.4127C309.109 98.1647 309.289 97.9607 309.513 97.8007C309.745 97.6407 310.017 97.5207 310.329 97.4407C310.649 97.3607 310.989 97.3207 311.349 97.3207C311.509 97.3207 311.685 97.3287 311.877 97.3447C312.077 97.3607 312.273 97.3847 312.465 97.4167C312.665 97.4407 312.849 97.4687 313.017 97.5007C313.185 97.5327 313.325 97.5647 313.437 97.5967V103.657H312.657V101.161H311.541C311.365 101.161 311.205 101.161 311.061 101.161C310.925 101.153 310.813 101.141 310.725 101.125ZM312.657 98.1247C312.561 98.1007 312.405 98.0767 312.189 98.0527C311.973 98.0207 311.697 98.0047 311.361 98.0047C311.137 98.0047 310.917 98.0287 310.701 98.0767C310.493 98.1167 310.305 98.1887 310.137 98.2927C309.969 98.3967 309.833 98.5327 309.729 98.7007C309.633 98.8607 309.585 99.0607 309.585 99.3007C309.585 99.5327 309.629 99.7287 309.717 99.8887C309.805 100.041 309.929 100.165 310.089 100.261C310.249 100.349 310.441 100.413 310.665 100.453C310.897 100.493 311.153 100.513 311.433 100.513H312.657V98.1247ZM317.802 100.921C317.946 100.537 318.146 100.105 318.402 99.6247C318.666 99.1447 318.962 98.6527 319.29 98.1487C319.618 97.6447 319.974 97.1527 320.358 96.6727C320.742 96.1847 321.13 95.7407 321.522 95.3407H322.338V100.765H323.37V101.401H322.338V103.657H321.57V101.401H317.802V100.921ZM321.57 100.765V96.2167C321.29 96.5047 321.006 96.8367 320.718 97.2127C320.43 97.5887 320.154 97.9807 319.89 98.3887C319.634 98.7887 319.394 99.1927 319.17 99.6007C318.946 100.009 318.758 100.397 318.606 100.765H321.57Z" fill="#231F20"/>
<path fill-rule="evenodd" clip-rule="evenodd" d="M245.822 105.441H257.392V93.8728H245.822V105.441Z" fill="#A5C3D2"/>
<path d="M271.326 123.657C271.054 123.241 270.746 122.829 270.402 122.421C270.066 122.013 269.71 121.629 269.334 121.269C268.958 120.909 268.574 120.581 268.182 120.285C267.798 119.989 267.426 119.741 267.066 119.541V123.657H266.25V115.341H267.066V119.217C267.37 118.945 267.706 118.633 268.074 118.281C268.45 117.921 268.818 117.561 269.178 117.201C269.546 116.841 269.89 116.497 270.21 116.169C270.53 115.841 270.786 115.565 270.978 115.341H271.962C271.73 115.589 271.45 115.885 271.122 116.229C270.794 116.565 270.446 116.913 270.078 117.273C269.71 117.633 269.342 117.989 268.974 118.341C268.614 118.685 268.29 118.989 268.002 119.253C268.234 119.397 268.482 119.577 268.746 119.793C269.018 120.001 269.29 120.233 269.562 120.489C269.842 120.737 270.114 121.001 270.378 121.281C270.65 121.553 270.902 121.829 271.134 122.109C271.374 122.389 271.586 122.661 271.77 122.925C271.962 123.189 272.118 123.433 272.238 123.657H271.326ZM278.584 120.561C278.584 121.049 278.512 121.493 278.368 121.893C278.232 122.293 278.036 122.633 277.78 122.913C277.532 123.193 277.236 123.413 276.892 123.573C276.548 123.725 276.168 123.801 275.752 123.801C275.336 123.801 274.956 123.725 274.612 123.573C274.268 123.413 273.968 123.193 273.712 122.913C273.464 122.633 273.268 122.293 273.124 121.893C272.988 121.493 272.92 121.049 272.92 120.561C272.92 120.073 272.988 119.629 273.124 119.229C273.268 118.829 273.464 118.489 273.712 118.209C273.968 117.921 274.268 117.701 274.612 117.549C274.956 117.389 275.336 117.309 275.752 117.309C276.168 117.309 276.548 117.389 276.892 117.549C277.236 117.701 277.532 117.921 277.78 118.209C278.036 118.489 278.232 118.829 278.368 119.229C278.512 119.629 278.584 120.073 278.584 120.561ZM277.756 120.561C277.756 119.785 277.576 119.169 277.216 118.713C276.856 118.249 276.368 118.017 275.752 118.017C275.136 118.017 274.648 118.249 274.288 118.713C273.928 119.169 273.748 119.785 273.748 120.561C273.748 121.337 273.928 121.953 274.288 122.409C274.648 122.865 275.136 123.093 275.752 123.093C276.368 123.093 276.856 122.865 277.216 122.409C277.576 121.953 277.756 121.337 277.756 120.561ZM283.216 122.793C283.168 122.673 283.096 122.509 283 122.301C282.904 122.085 282.796 121.849 282.676 121.593C282.564 121.329 282.44 121.053 282.304 120.765C282.168 120.469 282.032 120.185 281.896 119.913C281.768 119.641 281.644 119.385 281.524 119.145C281.404 118.905 281.3 118.709 281.212 118.557C281.108 119.477 281.032 120.353 280.984 121.185C280.936 122.009 280.896 122.833 280.864 123.657H280.132C280.164 122.625 280.216 121.585 280.288 120.537C280.368 119.489 280.468 118.461 280.588 117.453H281.392C281.496 117.621 281.628 117.861 281.788 118.173C281.956 118.485 282.136 118.841 282.328 119.241C282.528 119.633 282.732 120.061 282.94 120.525C283.156 120.981 283.372 121.445 283.588 121.917C283.804 121.445 284.016 120.981 284.224 120.525C284.44 120.061 284.644 119.633 284.836 119.241C285.036 118.841 285.216 118.485 285.376 118.173C285.536 117.861 285.672 117.621 285.784 117.453H286.576C286.696 118.461 286.792 119.489 286.864 120.537C286.944 121.585 287 122.625 287.032 123.657H286.288C286.256 122.833 286.216 122.009 286.168 121.185C286.12 120.353 286.044 119.477 285.94 118.557C285.852 118.717 285.748 118.917 285.628 119.157C285.508 119.389 285.38 119.641 285.244 119.913C285.116 120.185 284.984 120.469 284.848 120.765C284.712 121.053 284.584 121.329 284.464 121.593C284.352 121.849 284.248 122.085 284.152 122.301C284.056 122.509 283.984 122.673 283.936 122.793H283.216ZM290.904 123.093C291.208 123.093 291.472 123.085 291.696 123.069C291.928 123.045 292.124 123.017 292.284 122.985V120.801C292.196 120.761 292.056 120.721 291.864 120.681C291.672 120.633 291.408 120.609 291.072 120.609C290.88 120.609 290.68 120.625 290.472 120.657C290.264 120.681 290.072 120.741 289.896 120.837C289.72 120.925 289.576 121.049 289.464 121.209C289.352 121.369 289.296 121.581 289.296 121.845C289.296 122.077 289.332 122.273 289.404 122.433C289.484 122.593 289.592 122.721 289.728 122.817C289.872 122.913 290.04 122.985 290.232 123.033C290.432 123.073 290.656 123.093 290.904 123.093ZM290.832 117.309C291.24 117.309 291.584 117.369 291.864 117.489C292.152 117.601 292.384 117.761 292.56 117.969C292.736 118.169 292.864 118.409 292.944 118.689C293.024 118.969 293.064 119.273 293.064 119.601V123.513C292.984 123.537 292.868 123.565 292.716 123.597C292.564 123.621 292.388 123.649 292.188 123.681C291.988 123.713 291.764 123.737 291.516 123.753C291.276 123.777 291.028 123.789 290.772 123.789C290.444 123.789 290.14 123.753 289.86 123.681C289.588 123.609 289.348 123.497 289.14 123.345C288.94 123.185 288.78 122.985 288.66 122.745C288.548 122.497 288.492 122.197 288.492 121.845C288.492 121.509 288.556 121.221 288.684 120.981C288.812 120.741 288.992 120.545 289.224 120.393C289.456 120.233 289.732 120.117 290.052 120.045C290.372 119.973 290.72 119.937 291.096 119.937C291.208 119.937 291.324 119.945 291.444 119.961C291.572 119.969 291.692 119.985 291.804 120.009C291.924 120.025 292.024 120.045 292.104 120.069C292.192 120.085 292.252 120.101 292.284 120.117V119.733C292.284 119.517 292.268 119.309 292.236 119.109C292.204 118.901 292.132 118.717 292.02 118.557C291.916 118.389 291.764 118.257 291.564 118.161C291.372 118.057 291.116 118.005 290.796 118.005C290.34 118.005 290 118.037 289.776 118.101C289.552 118.165 289.388 118.217 289.284 118.257L289.176 117.573C289.312 117.509 289.52 117.449 289.8 117.393C290.088 117.337 290.432 117.309 290.832 117.309ZM299.985 123.657H299.205V120.765H295.833V123.657H295.053V117.453H295.833V120.105H299.205V117.453H299.985V123.657ZM306.274 118.449C306.034 118.737 305.754 119.101 305.434 119.541C305.122 119.981 304.802 120.445 304.474 120.933C304.154 121.421 303.846 121.905 303.55 122.385C303.254 122.865 302.998 123.289 302.782 123.657H302.05V117.453H302.818V122.421C303.01 122.077 303.246 121.681 303.526 121.233C303.814 120.777 304.118 120.321 304.438 119.865C304.758 119.401 305.078 118.957 305.398 118.533C305.726 118.109 306.03 117.749 306.31 117.453H307.042V123.657H306.274V118.449ZM310.712 121.125C310.592 121.309 310.46 121.509 310.316 121.725C310.18 121.941 310.044 122.161 309.908 122.385C309.78 122.609 309.656 122.833 309.536 123.057C309.416 123.273 309.316 123.473 309.236 123.657H308.432C308.64 123.185 308.892 122.709 309.188 122.229C309.484 121.749 309.76 121.329 310.016 120.969C309.856 120.921 309.7 120.853 309.548 120.765C309.404 120.677 309.272 120.565 309.152 120.429C309.04 120.293 308.948 120.133 308.876 119.949C308.804 119.757 308.768 119.541 308.768 119.301C308.768 118.957 308.832 118.661 308.96 118.413C309.096 118.165 309.276 117.961 309.5 117.801C309.732 117.641 310.004 117.521 310.316 117.441C310.636 117.361 310.976 117.321 311.336 117.321C311.496 117.321 311.672 117.329 311.864 117.345C312.064 117.361 312.26 117.385 312.452 117.417C312.652 117.441 312.836 117.469 313.004 117.501C313.172 117.533 313.312 117.565 313.424 117.597V123.657H312.644V121.161H311.528C311.352 121.161 311.192 121.161 311.048 121.161C310.912 121.153 310.8 121.141 310.712 121.125ZM312.644 118.125C312.548 118.101 312.392 118.077 312.176 118.053C311.96 118.021 311.684 118.005 311.348 118.005C311.124 118.005 310.904 118.029 310.688 118.077C310.48 118.117 310.292 118.189 310.124 118.293C309.956 118.397 309.82 118.533 309.716 118.701C309.62 118.861 309.572 119.061 309.572 119.301C309.572 119.533 309.616 119.729 309.704 119.889C309.792 120.041 309.916 120.165 310.076 120.261C310.236 120.349 310.428 120.413 310.652 120.453C310.884 120.493 311.14 120.513 311.42 120.513H312.644V118.125ZM320.057 123.117C320.457 123.117 320.789 123.073 321.053 122.985C321.325 122.889 321.541 122.761 321.701 122.601C321.861 122.441 321.973 122.257 322.037 122.049C322.109 121.833 322.145 121.601 322.145 121.353C322.145 121.033 322.093 120.745 321.989 120.489C321.885 120.233 321.701 120.017 321.437 119.841C321.173 119.665 320.817 119.533 320.369 119.445C319.921 119.349 319.353 119.301 318.665 119.301C318.713 118.893 318.753 118.521 318.785 118.185C318.817 117.841 318.845 117.513 318.869 117.201C318.893 116.881 318.909 116.573 318.917 116.277C318.933 115.973 318.945 115.661 318.953 115.341H322.697V116.025H319.637C319.629 116.177 319.617 116.373 319.601 116.613C319.585 116.853 319.569 117.101 319.553 117.357C319.537 117.605 319.517 117.845 319.493 118.077C319.469 118.309 319.449 118.493 319.433 118.629C320.049 118.645 320.581 118.721 321.029 118.857C321.477 118.993 321.845 119.177 322.133 119.409C322.421 119.641 322.633 119.921 322.769 120.249C322.913 120.577 322.985 120.941 322.985 121.341C322.985 121.693 322.925 122.021 322.805 122.325C322.693 122.629 322.517 122.893 322.277 123.117C322.037 123.341 321.733 123.517 321.365 123.645C320.997 123.773 320.561 123.837 320.057 123.837C319.801 123.837 319.561 123.817 319.337 123.777C319.121 123.745 318.925 123.705 318.749 123.657C318.581 123.609 318.437 123.561 318.317 123.513C318.197 123.465 318.109 123.425 318.053 123.393L318.257 122.697C318.305 122.729 318.385 122.769 318.497 122.817C318.617 122.865 318.753 122.913 318.905 122.961C319.065 123.001 319.241 123.037 319.433 123.069C319.633 123.101 319.841 123.117 320.057 123.117Z" fill="#231F20"/>
<path fill-rule="evenodd" clip-rule="evenodd" d="M245.822 125.441H257.392V113.873H245.822V125.441Z" fill="#567483"/>
<path d="M271.314 143.657C271.042 143.241 270.734 142.829 270.39 142.421C270.054 142.013 269.698 141.629 269.322 141.269C268.946 140.909 268.562 140.581 268.17 140.285C267.786 139.989 267.414 139.741 267.054 139.541V143.657H266.238V135.341H267.054V139.217C267.358 138.945 267.694 138.633 268.062 138.281C268.438 137.921 268.806 137.561 269.166 137.201C269.534 136.841 269.878 136.497 270.198 136.169C270.518 135.841 270.774 135.565 270.966 135.341H271.95C271.718 135.589 271.438 135.885 271.11 136.229C270.782 136.565 270.434 136.913 270.066 137.273C269.698 137.633 269.33 137.989 268.962 138.341C268.602 138.685 268.278 138.989 267.99 139.253C268.222 139.397 268.47 139.577 268.734 139.793C269.006 140.001 269.278 140.233 269.55 140.489C269.83 140.737 270.102 141.001 270.366 141.281C270.638 141.553 270.89 141.829 271.122 142.109C271.362 142.389 271.574 142.661 271.758 142.925C271.95 143.189 272.106 143.433 272.226 143.657H271.314ZM278.572 140.561C278.572 141.049 278.5 141.493 278.356 141.893C278.22 142.293 278.024 142.633 277.768 142.913C277.52 143.193 277.224 143.413 276.88 143.573C276.536 143.725 276.156 143.801 275.74 143.801C275.324 143.801 274.944 143.725 274.6 143.573C274.256 143.413 273.956 143.193 273.7 142.913C273.452 142.633 273.256 142.293 273.112 141.893C272.976 141.493 272.908 141.049 272.908 140.561C272.908 140.073 272.976 139.629 273.112 139.229C273.256 138.829 273.452 138.489 273.7 138.209C273.956 137.921 274.256 137.701 274.6 137.549C274.944 137.389 275.324 137.309 275.74 137.309C276.156 137.309 276.536 137.389 276.88 137.549C277.224 137.701 277.52 137.921 277.768 138.209C278.024 138.489 278.22 138.829 278.356 139.229C278.5 139.629 278.572 140.073 278.572 140.561ZM277.744 140.561C277.744 139.785 277.564 139.169 277.204 138.713C276.844 138.249 276.356 138.017 275.74 138.017C275.124 138.017 274.636 138.249 274.276 138.713C273.916 139.169 273.736 139.785 273.736 140.561C273.736 141.337 273.916 141.953 274.276 142.409C274.636 142.865 275.124 143.093 275.74 143.093C276.356 143.093 276.844 142.865 277.204 142.409C277.564 141.953 277.744 141.337 277.744 140.561ZM283.204 142.793C283.156 142.673 283.084 142.509 282.988 142.301C282.892 142.085 282.784 141.849 282.664 141.593C282.552 141.329 282.428 141.053 282.292 140.765C282.156 140.469 282.02 140.185 281.884 139.913C281.756 139.641 281.632 139.385 281.512 139.145C281.392 138.905 281.288 138.709 281.2 138.557C281.096 139.477 281.02 140.353 280.972 141.185C280.924 142.009 280.884 142.833 280.852 143.657H280.12C280.152 142.625 280.204 141.585 280.276 140.537C280.356 139.489 280.456 138.461 280.576 137.453H281.38C281.484 137.621 281.616 137.861 281.776 138.173C281.944 138.485 282.124 138.841 282.316 139.241C282.516 139.633 282.72 140.061 282.928 140.525C283.144 140.981 283.36 141.445 283.576 141.917C283.792 141.445 284.004 140.981 284.212 140.525C284.428 140.061 284.632 139.633 284.824 139.241C285.024 138.841 285.204 138.485 285.364 138.173C285.524 137.861 285.66 137.621 285.772 137.453H286.564C286.684 138.461 286.78 139.489 286.852 140.537C286.932 141.585 286.988 142.625 287.02 143.657H286.276C286.244 142.833 286.204 142.009 286.156 141.185C286.108 140.353 286.032 139.477 285.928 138.557C285.84 138.717 285.736 138.917 285.616 139.157C285.496 139.389 285.368 139.641 285.232 139.913C285.104 140.185 284.972 140.469 284.836 140.765C284.7 141.053 284.572 141.329 284.452 141.593C284.34 141.849 284.236 142.085 284.14 142.301C284.044 142.509 283.972 142.673 283.924 142.793H283.204ZM290.892 143.093C291.196 143.093 291.46 143.085 291.684 143.069C291.916 143.045 292.112 143.017 292.272 142.985V140.801C292.184 140.761 292.044 140.721 291.852 140.681C291.66 140.633 291.396 140.609 291.06 140.609C290.868 140.609 290.668 140.625 290.46 140.657C290.252 140.681 290.06 140.741 289.884 140.837C289.708 140.925 289.564 141.049 289.452 141.209C289.34 141.369 289.284 141.581 289.284 141.845C289.284 142.077 289.32 142.273 289.392 142.433C289.472 142.593 289.58 142.721 289.716 142.817C289.86 142.913 290.028 142.985 290.22 143.033C290.42 143.073 290.644 143.093 290.892 143.093ZM290.82 137.309C291.228 137.309 291.572 137.369 291.852 137.489C292.14 137.601 292.372 137.761 292.548 137.969C292.724 138.169 292.852 138.409 292.932 138.689C293.012 138.969 293.052 139.273 293.052 139.601V143.513C292.972 143.537 292.856 143.565 292.704 143.597C292.552 143.621 292.376 143.649 292.176 143.681C291.976 143.713 291.752 143.737 291.504 143.753C291.264 143.777 291.016 143.789 290.76 143.789C290.432 143.789 290.128 143.753 289.848 143.681C289.576 143.609 289.336 143.497 289.128 143.345C288.928 143.185 288.768 142.985 288.648 142.745C288.536 142.497 288.48 142.197 288.48 141.845C288.48 141.509 288.544 141.221 288.672 140.981C288.8 140.741 288.98 140.545 289.212 140.393C289.444 140.233 289.72 140.117 290.04 140.045C290.36 139.973 290.708 139.937 291.084 139.937C291.196 139.937 291.312 139.945 291.432 139.961C291.56 139.969 291.68 139.985 291.792 140.009C291.912 140.025 292.012 140.045 292.092 140.069C292.18 140.085 292.24 140.101 292.272 140.117V139.733C292.272 139.517 292.256 139.309 292.224 139.109C292.192 138.901 292.12 138.717 292.008 138.557C291.904 138.389 291.752 138.257 291.552 138.161C291.36 138.057 291.104 138.005 290.784 138.005C290.328 138.005 289.988 138.037 289.764 138.101C289.54 138.165 289.376 138.217 289.272 138.257L289.164 137.573C289.3 137.509 289.508 137.449 289.788 137.393C290.076 137.337 290.42 137.309 290.82 137.309ZM299.973 143.657H299.193V140.765H295.821V143.657H295.041V137.453H295.821V140.105H299.193V137.453H299.973V143.657ZM306.261 138.449C306.021 138.737 305.741 139.101 305.421 139.541C305.109 139.981 304.789 140.445 304.461 140.933C304.141 141.421 303.833 141.905 303.537 142.385C303.241 142.865 302.985 143.289 302.769 143.657H302.037V137.453H302.805V142.421C302.997 142.077 303.233 141.681 303.513 141.233C303.801 140.777 304.105 140.321 304.425 139.865C304.745 139.401 305.065 138.957 305.385 138.533C305.713 138.109 306.017 137.749 306.297 137.453H307.029V143.657H306.261V138.449ZM310.7 141.125C310.58 141.309 310.448 141.509 310.304 141.725C310.168 141.941 310.032 142.161 309.896 142.385C309.768 142.609 309.644 142.833 309.524 143.057C309.404 143.273 309.304 143.473 309.224 143.657H308.42C308.628 143.185 308.88 142.709 309.176 142.229C309.472 141.749 309.748 141.329 310.004 140.969C309.844 140.921 309.688 140.853 309.536 140.765C309.392 140.677 309.26 140.565 309.14 140.429C309.028 140.293 308.936 140.133 308.864 139.949C308.792 139.757 308.756 139.541 308.756 139.301C308.756 138.957 308.82 138.661 308.948 138.413C309.084 138.165 309.264 137.961 309.488 137.801C309.72 137.641 309.992 137.521 310.304 137.441C310.624 137.361 310.964 137.321 311.324 137.321C311.484 137.321 311.66 137.329 311.852 137.345C312.052 137.361 312.248 137.385 312.44 137.417C312.64 137.441 312.824 137.469 312.992 137.501C313.16 137.533 313.3 137.565 313.412 137.597V143.657H312.632V141.161H311.516C311.34 141.161 311.18 141.161 311.036 141.161C310.9 141.153 310.788 141.141 310.7 141.125ZM312.632 138.125C312.536 138.101 312.38 138.077 312.164 138.053C311.948 138.021 311.672 138.005 311.336 138.005C311.112 138.005 310.892 138.029 310.676 138.077C310.468 138.117 310.28 138.189 310.112 138.293C309.944 138.397 309.808 138.533 309.704 138.701C309.608 138.861 309.56 139.061 309.56 139.301C309.56 139.533 309.604 139.729 309.692 139.889C309.78 140.041 309.904 140.165 310.064 140.261C310.224 140.349 310.416 140.413 310.64 140.453C310.872 140.493 311.128 140.513 311.408 140.513H312.632V138.125ZM318.101 140.357C318.101 138.733 318.489 137.501 319.265 136.661C320.049 135.821 321.185 135.369 322.673 135.305L322.721 135.965C322.233 135.997 321.781 136.073 321.365 136.193C320.957 136.305 320.593 136.485 320.273 136.733C319.953 136.973 319.685 137.285 319.469 137.669C319.253 138.053 319.105 138.525 319.025 139.085C319.241 138.973 319.501 138.877 319.805 138.797C320.109 138.709 320.433 138.665 320.777 138.665C321.225 138.665 321.605 138.737 321.917 138.881C322.229 139.017 322.481 139.201 322.673 139.433C322.865 139.665 323.005 139.933 323.093 140.237C323.181 140.541 323.225 140.861 323.225 141.197C323.225 141.509 323.177 141.821 323.081 142.133C322.985 142.445 322.833 142.729 322.625 142.985C322.425 143.233 322.169 143.437 321.857 143.597C321.553 143.757 321.189 143.837 320.765 143.837C319.893 143.837 319.229 143.533 318.773 142.925C318.325 142.309 318.101 141.453 318.101 140.357ZM320.705 139.349C320.337 139.349 320.013 139.393 319.733 139.481C319.461 139.561 319.205 139.657 318.965 139.769C318.949 139.905 318.941 140.013 318.941 140.093C318.941 140.165 318.941 140.257 318.941 140.369C318.941 140.745 318.965 141.101 319.013 141.437C319.069 141.773 319.165 142.069 319.301 142.325C319.445 142.581 319.633 142.785 319.865 142.937C320.097 143.081 320.393 143.153 320.753 143.153C321.049 143.153 321.301 143.101 321.509 142.997C321.717 142.885 321.885 142.741 322.013 142.565C322.141 142.389 322.233 142.185 322.289 141.953C322.353 141.721 322.385 141.477 322.385 141.221C322.385 140.581 322.241 140.109 321.953 139.805C321.673 139.501 321.257 139.349 320.705 139.349Z" fill="#231F20"/>
<path fill-rule="evenodd" clip-rule="evenodd" d="M245.822 145.441H257.392V133.873H245.822V145.441Z" fill="#183642"/>
<path d="M271.302 163.657C271.03 163.241 270.722 162.829 270.378 162.421C270.042 162.013 269.686 161.629 269.31 161.269C268.934 160.909 268.55 160.581 268.158 160.285C267.774 159.989 267.402 159.741 267.042 159.541V163.657H266.226V155.341H267.042V159.217C267.346 158.945 267.682 158.633 268.05 158.281C268.426 157.921 268.794 157.561 269.154 157.201C269.522 156.841 269.866 156.497 270.186 156.169C270.506 155.841 270.762 155.565 270.954 155.341H271.938C271.706 155.589 271.426 155.885 271.098 156.229C270.77 156.565 270.422 156.913 270.054 157.273C269.686 157.633 269.318 157.989 268.95 158.341C268.59 158.685 268.266 158.989 267.978 159.253C268.21 159.397 268.458 159.577 268.722 159.793C268.994 160.001 269.266 160.233 269.538 160.489C269.818 160.737 270.09 161.001 270.354 161.281C270.626 161.553 270.878 161.829 271.11 162.109C271.35 162.389 271.562 162.661 271.746 162.925C271.938 163.189 272.094 163.433 272.214 163.657H271.302ZM278.559 160.561C278.559 161.049 278.487 161.493 278.343 161.893C278.207 162.293 278.011 162.633 277.755 162.913C277.507 163.193 277.211 163.413 276.867 163.573C276.523 163.725 276.143 163.801 275.727 163.801C275.311 163.801 274.931 163.725 274.587 163.573C274.243 163.413 273.943 163.193 273.687 162.913C273.439 162.633 273.243 162.293 273.099 161.893C272.963 161.493 272.895 161.049 272.895 160.561C272.895 160.073 272.963 159.629 273.099 159.229C273.243 158.829 273.439 158.489 273.687 158.209C273.943 157.921 274.243 157.701 274.587 157.549C274.931 157.389 275.311 157.309 275.727 157.309C276.143 157.309 276.523 157.389 276.867 157.549C277.211 157.701 277.507 157.921 277.755 158.209C278.011 158.489 278.207 158.829 278.343 159.229C278.487 159.629 278.559 160.073 278.559 160.561ZM277.731 160.561C277.731 159.785 277.551 159.169 277.191 158.713C276.831 158.249 276.343 158.017 275.727 158.017C275.111 158.017 274.623 158.249 274.263 158.713C273.903 159.169 273.723 159.785 273.723 160.561C273.723 161.337 273.903 161.953 274.263 162.409C274.623 162.865 275.111 163.093 275.727 163.093C276.343 163.093 276.831 162.865 277.191 162.409C277.551 161.953 277.731 161.337 277.731 160.561ZM283.192 162.793C283.144 162.673 283.072 162.509 282.976 162.301C282.88 162.085 282.772 161.849 282.652 161.593C282.54 161.329 282.416 161.053 282.28 160.765C282.144 160.469 282.008 160.185 281.872 159.913C281.744 159.641 281.62 159.385 281.5 159.145C281.38 158.905 281.276 158.709 281.188 158.557C281.084 159.477 281.008 160.353 280.96 161.185C280.912 162.009 280.872 162.833 280.84 163.657H280.108C280.14 162.625 280.192 161.585 280.264 160.537C280.344 159.489 280.444 158.461 280.564 157.453H281.368C281.472 157.621 281.604 157.861 281.764 158.173C281.932 158.485 282.112 158.841 282.304 159.241C282.504 159.633 282.708 160.061 282.916 160.525C283.132 160.981 283.348 161.445 283.564 161.917C283.78 161.445 283.992 160.981 284.2 160.525C284.416 160.061 284.62 159.633 284.812 159.241C285.012 158.841 285.192 158.485 285.352 158.173C285.512 157.861 285.648 157.621 285.76 157.453H286.552C286.672 158.461 286.768 159.489 286.84 160.537C286.92 161.585 286.976 162.625 287.008 163.657H286.264C286.232 162.833 286.192 162.009 286.144 161.185C286.096 160.353 286.02 159.477 285.916 158.557C285.828 158.717 285.724 158.917 285.604 159.157C285.484 159.389 285.356 159.641 285.22 159.913C285.092 160.185 284.96 160.469 284.824 160.765C284.688 161.053 284.56 161.329 284.44 161.593C284.328 161.849 284.224 162.085 284.128 162.301C284.032 162.509 283.96 162.673 283.912 162.793H283.192ZM290.88 163.093C291.184 163.093 291.448 163.085 291.672 163.069C291.904 163.045 292.1 163.017 292.26 162.985V160.801C292.172 160.761 292.032 160.721 291.84 160.681C291.648 160.633 291.384 160.609 291.048 160.609C290.856 160.609 290.656 160.625 290.448 160.657C290.24 160.681 290.048 160.741 289.872 160.837C289.696 160.925 289.552 161.049 289.44 161.209C289.328 161.369 289.272 161.581 289.272 161.845C289.272 162.077 289.308 162.273 289.38 162.433C289.46 162.593 289.568 162.721 289.704 162.817C289.848 162.913 290.016 162.985 290.208 163.033C290.408 163.073 290.632 163.093 290.88 163.093ZM290.808 157.309C291.216 157.309 291.56 157.369 291.84 157.489C292.128 157.601 292.36 157.761 292.536 157.969C292.712 158.169 292.84 158.409 292.92 158.689C293 158.969 293.04 159.273 293.04 159.601V163.513C292.96 163.537 292.844 163.565 292.692 163.597C292.54 163.621 292.364 163.649 292.164 163.681C291.964 163.713 291.74 163.737 291.492 163.753C291.252 163.777 291.004 163.789 290.748 163.789C290.42 163.789 290.116 163.753 289.836 163.681C289.564 163.609 289.324 163.497 289.116 163.345C288.916 163.185 288.756 162.985 288.636 162.745C288.524 162.497 288.468 162.197 288.468 161.845C288.468 161.509 288.532 161.221 288.66 160.981C288.788 160.741 288.968 160.545 289.2 160.393C289.432 160.233 289.708 160.117 290.028 160.045C290.348 159.973 290.696 159.937 291.072 159.937C291.184 159.937 291.3 159.945 291.42 159.961C291.548 159.969 291.668 159.985 291.78 160.009C291.9 160.025 292 160.045 292.08 160.069C292.168 160.085 292.228 160.101 292.26 160.117V159.733C292.26 159.517 292.244 159.309 292.212 159.109C292.18 158.901 292.108 158.717 291.996 158.557C291.892 158.389 291.74 158.257 291.54 158.161C291.348 158.057 291.092 158.005 290.772 158.005C290.316 158.005 289.976 158.037 289.752 158.101C289.528 158.165 289.364 158.217 289.26 158.257L289.152 157.573C289.288 157.509 289.496 157.449 289.776 157.393C290.064 157.337 290.408 157.309 290.808 157.309ZM299.961 163.657H299.181V160.765H295.809V163.657H295.029V157.453H295.809V160.105H299.181V157.453H299.961V163.657ZM306.249 158.449C306.009 158.737 305.729 159.101 305.409 159.541C305.097 159.981 304.777 160.445 304.449 160.933C304.129 161.421 303.821 161.905 303.525 162.385C303.229 162.865 302.973 163.289 302.757 163.657H302.025V157.453H302.793V162.421C302.985 162.077 303.221 161.681 303.501 161.233C303.789 160.777 304.093 160.321 304.413 159.865C304.733 159.401 305.053 158.957 305.373 158.533C305.701 158.109 306.005 157.749 306.285 157.453H307.017V163.657H306.249V158.449ZM310.688 161.125C310.568 161.309 310.436 161.509 310.292 161.725C310.156 161.941 310.02 162.161 309.884 162.385C309.756 162.609 309.632 162.833 309.512 163.057C309.392 163.273 309.292 163.473 309.212 163.657H308.408C308.616 163.185 308.868 162.709 309.164 162.229C309.46 161.749 309.736 161.329 309.992 160.969C309.832 160.921 309.676 160.853 309.524 160.765C309.38 160.677 309.248 160.565 309.128 160.429C309.016 160.293 308.924 160.133 308.852 159.949C308.78 159.757 308.744 159.541 308.744 159.301C308.744 158.957 308.808 158.661 308.936 158.413C309.072 158.165 309.252 157.961 309.476 157.801C309.708 157.641 309.98 157.521 310.292 157.441C310.612 157.361 310.952 157.321 311.312 157.321C311.472 157.321 311.648 157.329 311.84 157.345C312.04 157.361 312.236 157.385 312.428 157.417C312.628 157.441 312.812 157.469 312.98 157.501C313.148 157.533 313.288 157.565 313.4 157.597V163.657H312.62V161.161H311.504C311.328 161.161 311.168 161.161 311.024 161.161C310.888 161.153 310.776 161.141 310.688 161.125ZM312.62 158.125C312.524 158.101 312.368 158.077 312.152 158.053C311.936 158.021 311.66 158.005 311.324 158.005C311.1 158.005 310.88 158.029 310.664 158.077C310.456 158.117 310.268 158.189 310.1 158.293C309.932 158.397 309.796 158.533 309.692 158.701C309.596 158.861 309.548 159.061 309.548 159.301C309.548 159.533 309.592 159.729 309.68 159.889C309.768 160.041 309.892 160.165 310.052 160.261C310.212 160.349 310.404 160.413 310.628 160.453C310.86 160.493 311.116 160.513 311.396 160.513H312.62V158.125ZM319.265 163.657C319.313 162.993 319.433 162.289 319.625 161.545C319.825 160.801 320.065 160.081 320.345 159.385C320.633 158.689 320.941 158.049 321.269 157.465C321.605 156.881 321.929 156.413 322.241 156.061H317.993V155.341H323.045V156.037C322.773 156.365 322.473 156.805 322.145 157.357C321.825 157.901 321.521 158.517 321.233 159.205C320.945 159.885 320.693 160.609 320.477 161.377C320.269 162.145 320.141 162.905 320.093 163.657H319.265Z" fill="#231F20"/>
<path fill-rule="evenodd" clip-rule="evenodd" d="M245.822 165.441H257.392V153.873H245.822V165.441Z" fill="#BCBEC0"/>
<path d="M271.35 183.657C271.078 183.241 270.77 182.829 270.426 182.421C270.09 182.013 269.734 181.629 269.358 181.269C268.982 180.909 268.598 180.581 268.206 180.285C267.822 179.989 267.45 179.741 267.09 179.541V183.657H266.274V175.341H267.09V179.217C267.394 178.945 267.73 178.633 268.098 178.281C268.474 177.921 268.842 177.561 269.202 177.201C269.57 176.841 269.914 176.497 270.234 176.169C270.554 175.841 270.81 175.565 271.002 175.341H271.986C271.754 175.589 271.474 175.885 271.146 176.229C270.818 176.565 270.47 176.913 270.102 177.273C269.734 177.633 269.366 177.989 268.998 178.341C268.638 178.685 268.314 178.989 268.026 179.253C268.258 179.397 268.506 179.577 268.77 179.793C269.042 180.001 269.314 180.233 269.586 180.489C269.866 180.737 270.138 181.001 270.402 181.281C270.674 181.553 270.926 181.829 271.158 182.109C271.398 182.389 271.61 182.661 271.794 182.925C271.986 183.189 272.142 183.433 272.262 183.657H271.35ZM278.608 180.561C278.608 181.049 278.536 181.493 278.392 181.893C278.256 182.293 278.06 182.633 277.804 182.913C277.556 183.193 277.26 183.413 276.916 183.573C276.572 183.725 276.192 183.801 275.776 183.801C275.36 183.801 274.98 183.725 274.636 183.573C274.292 183.413 273.992 183.193 273.736 182.913C273.488 182.633 273.292 182.293 273.148 181.893C273.012 181.493 272.944 181.049 272.944 180.561C272.944 180.073 273.012 179.629 273.148 179.229C273.292 178.829 273.488 178.489 273.736 178.209C273.992 177.921 274.292 177.701 274.636 177.549C274.98 177.389 275.36 177.309 275.776 177.309C276.192 177.309 276.572 177.389 276.916 177.549C277.26 177.701 277.556 177.921 277.804 178.209C278.06 178.489 278.256 178.829 278.392 179.229C278.536 179.629 278.608 180.073 278.608 180.561ZM277.78 180.561C277.78 179.785 277.6 179.169 277.24 178.713C276.88 178.249 276.392 178.017 275.776 178.017C275.16 178.017 274.672 178.249 274.312 178.713C273.952 179.169 273.772 179.785 273.772 180.561C273.772 181.337 273.952 181.953 274.312 182.409C274.672 182.865 275.16 183.093 275.776 183.093C276.392 183.093 276.88 182.865 277.24 182.409C277.6 181.953 277.78 181.337 277.78 180.561ZM283.241 182.793C283.193 182.673 283.121 182.509 283.025 182.301C282.929 182.085 282.821 181.849 282.701 181.593C282.589 181.329 282.465 181.053 282.329 180.765C282.193 180.469 282.057 180.185 281.921 179.913C281.793 179.641 281.669 179.385 281.549 179.145C281.429 178.905 281.325 178.709 281.237 178.557C281.133 179.477 281.057 180.353 281.009 181.185C280.961 182.009 280.921 182.833 280.889 183.657H280.157C280.189 182.625 280.241 181.585 280.313 180.537C280.393 179.489 280.493 178.461 280.613 177.453H281.417C281.521 177.621 281.653 177.861 281.813 178.173C281.981 178.485 282.161 178.841 282.353 179.241C282.553 179.633 282.757 180.061 282.965 180.525C283.181 180.981 283.397 181.445 283.613 181.917C283.829 181.445 284.041 180.981 284.249 180.525C284.465 180.061 284.669 179.633 284.861 179.241C285.061 178.841 285.241 178.485 285.401 178.173C285.561 177.861 285.697 177.621 285.809 177.453H286.601C286.721 178.461 286.817 179.489 286.889 180.537C286.969 181.585 287.025 182.625 287.057 183.657H286.313C286.281 182.833 286.241 182.009 286.193 181.185C286.145 180.353 286.069 179.477 285.965 178.557C285.877 178.717 285.773 178.917 285.653 179.157C285.533 179.389 285.405 179.641 285.269 179.913C285.141 180.185 285.009 180.469 284.873 180.765C284.737 181.053 284.609 181.329 284.489 181.593C284.377 181.849 284.273 182.085 284.177 182.301C284.081 182.509 284.009 182.673 283.961 182.793H283.241ZM290.928 183.093C291.232 183.093 291.496 183.085 291.72 183.069C291.952 183.045 292.148 183.017 292.308 182.985V180.801C292.22 180.761 292.08 180.721 291.888 180.681C291.696 180.633 291.432 180.609 291.096 180.609C290.904 180.609 290.704 180.625 290.496 180.657C290.288 180.681 290.096 180.741 289.92 180.837C289.744 180.925 289.6 181.049 289.488 181.209C289.376 181.369 289.32 181.581 289.32 181.845C289.32 182.077 289.356 182.273 289.428 182.433C289.508 182.593 289.616 182.721 289.752 182.817C289.896 182.913 290.064 182.985 290.256 183.033C290.456 183.073 290.68 183.093 290.928 183.093ZM290.856 177.309C291.264 177.309 291.608 177.369 291.888 177.489C292.176 177.601 292.408 177.761 292.584 177.969C292.76 178.169 292.888 178.409 292.968 178.689C293.048 178.969 293.088 179.273 293.088 179.601V183.513C293.008 183.537 292.892 183.565 292.74 183.597C292.588 183.621 292.412 183.649 292.212 183.681C292.012 183.713 291.788 183.737 291.54 183.753C291.3 183.777 291.052 183.789 290.796 183.789C290.468 183.789 290.164 183.753 289.884 183.681C289.612 183.609 289.372 183.497 289.164 183.345C288.964 183.185 288.804 182.985 288.684 182.745C288.572 182.497 288.516 182.197 288.516 181.845C288.516 181.509 288.58 181.221 288.708 180.981C288.836 180.741 289.016 180.545 289.248 180.393C289.48 180.233 289.756 180.117 290.076 180.045C290.396 179.973 290.744 179.937 291.12 179.937C291.232 179.937 291.348 179.945 291.468 179.961C291.596 179.969 291.716 179.985 291.828 180.009C291.948 180.025 292.048 180.045 292.128 180.069C292.216 180.085 292.276 180.101 292.308 180.117V179.733C292.308 179.517 292.292 179.309 292.26 179.109C292.228 178.901 292.156 178.717 292.044 178.557C291.94 178.389 291.788 178.257 291.588 178.161C291.396 178.057 291.14 178.005 290.82 178.005C290.364 178.005 290.024 178.037 289.8 178.101C289.576 178.165 289.412 178.217 289.308 178.257L289.2 177.573C289.336 177.509 289.544 177.449 289.824 177.393C290.112 177.337 290.456 177.309 290.856 177.309ZM300.01 183.657H299.23V180.765H295.858V183.657H295.078V177.453H295.858V180.105H299.23V177.453H300.01V183.657ZM306.298 178.449C306.058 178.737 305.778 179.101 305.458 179.541C305.146 179.981 304.826 180.445 304.498 180.933C304.178 181.421 303.87 181.905 303.574 182.385C303.278 182.865 303.022 183.289 302.806 183.657H302.074V177.453H302.842V182.421C303.034 182.077 303.27 181.681 303.55 181.233C303.838 180.777 304.142 180.321 304.462 179.865C304.782 179.401 305.102 178.957 305.422 178.533C305.75 178.109 306.054 177.749 306.334 177.453H307.066V183.657H306.298V178.449ZM310.737 181.125C310.617 181.309 310.485 181.509 310.341 181.725C310.205 181.941 310.069 182.161 309.933 182.385C309.805 182.609 309.681 182.833 309.561 183.057C309.441 183.273 309.341 183.473 309.261 183.657H308.457C308.665 183.185 308.917 182.709 309.213 182.229C309.509 181.749 309.785 181.329 310.041 180.969C309.881 180.921 309.725 180.853 309.573 180.765C309.429 180.677 309.297 180.565 309.177 180.429C309.065 180.293 308.973 180.133 308.901 179.949C308.829 179.757 308.793 179.541 308.793 179.301C308.793 178.957 308.857 178.661 308.985 178.413C309.121 178.165 309.301 177.961 309.525 177.801C309.757 177.641 310.029 177.521 310.341 177.441C310.661 177.361 311.001 177.321 311.361 177.321C311.521 177.321 311.697 177.329 311.889 177.345C312.089 177.361 312.285 177.385 312.477 177.417C312.677 177.441 312.861 177.469 313.029 177.501C313.197 177.533 313.337 177.565 313.449 177.597V183.657H312.669V181.161H311.553C311.377 181.161 311.217 181.161 311.073 181.161C310.937 181.153 310.825 181.141 310.737 181.125ZM312.669 178.125C312.573 178.101 312.417 178.077 312.201 178.053C311.985 178.021 311.709 178.005 311.373 178.005C311.149 178.005 310.929 178.029 310.713 178.077C310.505 178.117 310.317 178.189 310.149 178.293C309.981 178.397 309.845 178.533 309.741 178.701C309.645 178.861 309.597 179.061 309.597 179.301C309.597 179.533 309.641 179.729 309.729 179.889C309.817 180.041 309.941 180.165 310.101 180.261C310.261 180.349 310.453 180.413 310.677 180.453C310.909 180.493 311.165 180.513 311.445 180.513H312.669V178.125ZM320.598 183.837C320.206 183.837 319.85 183.781 319.53 183.669C319.218 183.557 318.946 183.401 318.714 183.201C318.49 182.993 318.314 182.753 318.186 182.481C318.066 182.201 318.006 181.897 318.006 181.569C318.006 181.289 318.046 181.037 318.126 180.813C318.206 180.581 318.31 180.377 318.438 180.201C318.574 180.017 318.726 179.857 318.894 179.721C319.07 179.577 319.254 179.453 319.446 179.349C318.958 179.109 318.626 178.825 318.45 178.497C318.274 178.169 318.186 177.813 318.186 177.429C318.186 177.085 318.246 176.773 318.366 176.493C318.486 176.213 318.65 175.977 318.858 175.785C319.074 175.585 319.33 175.433 319.626 175.329C319.922 175.217 320.246 175.161 320.598 175.161C321.014 175.161 321.374 175.225 321.678 175.353C321.982 175.473 322.23 175.633 322.422 175.833C322.622 176.033 322.766 176.261 322.854 176.517C322.95 176.773 322.998 177.037 322.998 177.309C322.998 177.573 322.958 177.817 322.878 178.041C322.798 178.257 322.694 178.457 322.566 178.641C322.438 178.817 322.294 178.973 322.134 179.109C321.974 179.245 321.818 179.361 321.666 179.457C322.226 179.697 322.618 179.997 322.842 180.357C323.074 180.717 323.19 181.097 323.19 181.497C323.19 181.841 323.126 182.157 322.998 182.445C322.878 182.733 322.706 182.981 322.482 183.189C322.258 183.389 321.986 183.545 321.666 183.657C321.346 183.777 320.99 183.837 320.598 183.837ZM322.362 181.569C322.362 181.225 322.294 180.945 322.158 180.729C322.03 180.513 321.858 180.337 321.642 180.201C321.434 180.065 321.194 179.957 320.922 179.877C320.658 179.797 320.39 179.713 320.118 179.625C319.71 179.817 319.394 180.077 319.17 180.405C318.946 180.725 318.834 181.113 318.834 181.569C318.834 181.793 318.87 182.001 318.942 182.193C319.014 182.385 319.122 182.553 319.266 182.697C319.418 182.841 319.602 182.957 319.818 183.045C320.042 183.125 320.302 183.165 320.598 183.165C320.894 183.165 321.15 183.125 321.366 183.045C321.59 182.957 321.774 182.841 321.918 182.697C322.07 182.553 322.182 182.385 322.254 182.193C322.326 182.001 322.362 181.793 322.362 181.569ZM319.002 177.345C319.002 177.569 319.026 177.773 319.074 177.957C319.13 178.141 319.23 178.309 319.374 178.461C319.518 178.605 319.718 178.741 319.974 178.869C320.23 178.989 320.566 179.105 320.982 179.217C321.35 179.009 321.642 178.753 321.858 178.449C322.074 178.145 322.182 177.765 322.182 177.309C322.182 177.125 322.15 176.945 322.086 176.769C322.03 176.593 321.938 176.437 321.81 176.301C321.69 176.157 321.53 176.045 321.33 175.965C321.13 175.877 320.886 175.833 320.598 175.833C320.334 175.833 320.102 175.873 319.902 175.953C319.702 176.033 319.534 176.145 319.398 176.289C319.27 176.425 319.17 176.585 319.098 176.769C319.034 176.953 319.002 177.145 319.002 177.345Z" fill="#231F20"/>
<path fill-rule="evenodd" clip-rule="evenodd" d="M245.822 185.441H257.392V173.873H245.822V185.441Z" fill="#231F20"/>
<path d="M80.9254 100.069V115.469H77.3614V102.929H74.2814V100.069H80.9254ZM95.6567 100.069V102.379L89.9367 115.469H86.0647L91.5867 102.973H86.4827V105.481H83.3147V100.069H95.6567ZM115.53 100.069V102.379L109.81 115.469H105.938L111.46 102.973H106.356V105.481H103.188V100.069H115.53ZM127.289 107.373C128.052 107.755 128.631 108.253 129.027 108.869C129.438 109.485 129.643 110.197 129.643 111.003C129.643 111.957 129.372 112.793 128.829 113.511C128.286 114.215 127.524 114.765 126.541 115.161C125.558 115.543 124.422 115.733 123.131 115.733C121.84 115.733 120.704 115.543 119.721 115.161C118.753 114.765 117.998 114.215 117.455 113.511C116.927 112.793 116.663 111.957 116.663 111.003C116.663 110.197 116.861 109.485 117.257 108.869C117.668 108.253 118.247 107.755 118.995 107.373C118.423 107.021 117.983 106.581 117.675 106.053C117.367 105.511 117.213 104.895 117.213 104.205C117.213 103.311 117.462 102.533 117.961 101.873C118.46 101.213 119.156 100.707 120.051 100.355C120.946 99.9886 121.972 99.8052 123.131 99.8052C124.304 99.8052 125.338 99.9886 126.233 100.355C127.142 100.707 127.846 101.213 128.345 101.873C128.844 102.533 129.093 103.311 129.093 104.205C129.093 104.895 128.939 105.511 128.631 106.053C128.323 106.581 127.876 107.021 127.289 107.373ZM123.131 102.423C122.412 102.423 121.833 102.599 121.393 102.951C120.968 103.289 120.755 103.758 120.755 104.359C120.755 104.946 120.968 105.408 121.393 105.745C121.818 106.083 122.398 106.251 123.131 106.251C123.864 106.251 124.451 106.083 124.891 105.745C125.331 105.408 125.551 104.946 125.551 104.359C125.551 103.758 125.331 103.289 124.891 102.951C124.451 102.599 123.864 102.423 123.131 102.423ZM123.131 113.115C124.026 113.115 124.73 112.917 125.243 112.521C125.771 112.111 126.035 111.568 126.035 110.893C126.035 110.219 125.771 109.683 125.243 109.287C124.73 108.891 124.026 108.693 123.131 108.693C122.251 108.693 121.554 108.891 121.041 109.287C120.528 109.683 120.271 110.219 120.271 110.893C120.271 111.583 120.528 112.125 121.041 112.521C121.554 112.917 122.251 113.115 123.131 113.115ZM145.377 112.235H142.869V115.469H139.393V112.235H131.099V109.837L138.359 100.069H142.099L135.367 109.331H139.503V106.449H142.869V109.331H145.377V112.235Z" fill="#183642"/>
<path d="M91.4181 129.418C91.5461 129.578 91.7061 129.79 91.8981 130.054C92.0981 130.31 92.3021 130.598 92.5101 130.918C92.7181 131.23 92.9221 131.558 93.1221 131.902C93.3301 132.246 93.5061 132.578 93.6501 132.898H92.3781C92.2181 132.594 92.0421 132.286 91.8501 131.974C91.6661 131.662 91.4781 131.366 91.2861 131.086C91.0941 130.798 90.9021 130.53 90.7101 130.282C90.5261 130.034 90.3581 129.818 90.2061 129.634C90.1021 129.642 89.9941 129.646 89.8821 129.646C89.7781 129.646 89.6701 129.646 89.5581 129.646H88.5141V132.898H87.3501V124.702C87.6781 124.622 88.0421 124.57 88.4421 124.546C88.8501 124.514 89.2221 124.498 89.5581 124.498C90.7261 124.498 91.6141 124.718 92.2221 125.158C92.8381 125.598 93.1461 126.254 93.1461 127.126C93.1461 127.678 92.9981 128.15 92.7021 128.542C92.4141 128.934 91.9861 129.226 91.4181 129.418ZM89.6541 125.518C89.1581 125.518 88.7781 125.53 88.5141 125.554V128.686H89.3421C89.7421 128.686 90.1021 128.666 90.4221 128.626C90.7421 128.586 91.0101 128.51 91.2261 128.398C91.4501 128.286 91.6221 128.13 91.7421 127.93C91.8621 127.722 91.9221 127.45 91.9221 127.114C91.9221 126.802 91.8621 126.542 91.7421 126.334C91.6221 126.126 91.4581 125.962 91.2501 125.842C91.0501 125.722 90.8101 125.638 90.5301 125.59C90.2581 125.542 89.9661 125.518 89.6541 125.518ZM97.993 133.078C97.449 133.078 96.977 132.994 96.577 132.826C96.177 132.658 95.849 132.43 95.593 132.142C95.337 131.846 95.145 131.498 95.017 131.098C94.897 130.698 94.837 130.266 94.837 129.802V124.582H96.001V129.67C96.001 130.502 96.185 131.106 96.553 131.482C96.921 131.858 97.401 132.046 97.993 132.046C98.289 132.046 98.557 132.002 98.797 131.914C99.045 131.818 99.257 131.674 99.433 131.482C99.609 131.29 99.745 131.046 99.841 130.75C99.937 130.446 99.985 130.086 99.985 129.67V124.582H101.149V129.802C101.149 130.266 101.085 130.698 100.957 131.098C100.837 131.498 100.645 131.846 100.381 132.142C100.125 132.43 99.797 132.658 99.397 132.826C99.005 132.994 98.537 133.078 97.993 133.078ZM105.403 132.97C105.235 132.97 105.051 132.966 104.851 132.958C104.659 132.95 104.463 132.938 104.263 132.922C104.071 132.906 103.879 132.886 103.687 132.862C103.495 132.838 103.319 132.806 103.159 132.766V124.702C103.319 124.662 103.495 124.63 103.687 124.606C103.879 124.582 104.071 124.562 104.263 124.546C104.463 124.53 104.659 124.518 104.851 124.51C105.043 124.502 105.223 124.498 105.391 124.498C105.871 124.498 106.319 124.534 106.735 124.606C107.159 124.678 107.523 124.802 107.827 124.978C108.139 125.146 108.383 125.37 108.559 125.65C108.735 125.93 108.823 126.274 108.823 126.682C108.823 127.138 108.715 127.514 108.499 127.81C108.283 128.098 107.995 128.314 107.635 128.458C108.123 128.602 108.511 128.83 108.799 129.142C109.087 129.454 109.231 129.894 109.231 130.462C109.231 131.294 108.923 131.922 108.307 132.346C107.699 132.762 106.731 132.97 105.403 132.97ZM104.311 129.022V131.95C104.399 131.958 104.503 131.966 104.623 131.974C104.727 131.982 104.847 131.99 104.983 131.998C105.127 131.998 105.291 131.998 105.475 131.998C105.819 131.998 106.143 131.978 106.447 131.938C106.759 131.89 107.031 131.81 107.263 131.698C107.495 131.586 107.679 131.43 107.815 131.23C107.959 131.03 108.031 130.778 108.031 130.474C108.031 130.202 107.979 129.974 107.875 129.79C107.771 129.598 107.619 129.446 107.419 129.334C107.227 129.222 106.995 129.142 106.723 129.094C106.451 129.046 106.147 129.022 105.811 129.022H104.311ZM104.311 128.086H105.535C105.823 128.086 106.095 128.066 106.351 128.026C106.607 127.986 106.827 127.914 107.011 127.81C107.203 127.706 107.351 127.57 107.455 127.402C107.567 127.234 107.623 127.022 107.623 126.766C107.623 126.526 107.567 126.326 107.455 126.166C107.343 125.998 107.187 125.866 106.987 125.77C106.795 125.666 106.567 125.59 106.303 125.542C106.039 125.494 105.759 125.47 105.463 125.47C105.167 125.47 104.935 125.474 104.767 125.482C104.599 125.49 104.447 125.502 104.311 125.518V128.086ZM113.575 126.838C113.831 126.774 114.167 126.706 114.583 126.634C115.007 126.562 115.495 126.526 116.047 126.526C116.447 126.526 116.783 126.582 117.055 126.694C117.327 126.798 117.555 126.954 117.739 127.162C117.795 127.122 117.883 127.066 118.003 126.994C118.123 126.922 118.271 126.854 118.447 126.79C118.623 126.718 118.819 126.658 119.035 126.61C119.251 126.554 119.483 126.526 119.731 126.526C120.211 126.526 120.603 126.598 120.907 126.742C121.211 126.878 121.447 127.074 121.615 127.33C121.791 127.586 121.907 127.89 121.963 128.242C122.027 128.594 122.059 128.978 122.059 129.394V132.898H120.943V129.634C120.943 129.266 120.923 128.95 120.883 128.686C120.851 128.422 120.783 128.202 120.679 128.026C120.583 127.85 120.447 127.722 120.271 127.642C120.103 127.554 119.883 127.51 119.611 127.51C119.235 127.51 118.923 127.562 118.675 127.666C118.435 127.762 118.271 127.85 118.183 127.93C118.247 128.138 118.295 128.366 118.327 128.614C118.359 128.862 118.375 129.122 118.375 129.394V132.898H117.259V129.634C117.259 129.266 117.239 128.95 117.199 128.686C117.159 128.422 117.087 128.202 116.983 128.026C116.887 127.85 116.751 127.722 116.575 127.642C116.407 127.554 116.191 127.51 115.927 127.51C115.815 127.51 115.695 127.514 115.567 127.522C115.439 127.53 115.315 127.542 115.195 127.558C115.083 127.566 114.979 127.578 114.883 127.594C114.787 127.61 114.723 127.622 114.691 127.63V132.898H113.575V126.838ZM125.783 133.018C125.095 133.002 124.607 132.854 124.319 132.574C124.031 132.294 123.887 131.858 123.887 131.266V123.778L125.003 123.586V131.086C125.003 131.27 125.019 131.422 125.051 131.542C125.083 131.662 125.135 131.758 125.207 131.83C125.279 131.902 125.375 131.958 125.495 131.998C125.615 132.03 125.763 132.058 125.939 132.082L125.783 133.018ZM127.192 126.838C127.448 126.774 127.788 126.706 128.212 126.634C128.636 126.562 129.124 126.526 129.676 126.526C130.172 126.526 130.584 126.598 130.912 126.742C131.24 126.878 131.5 127.074 131.692 127.33C131.892 127.578 132.032 127.878 132.112 128.23C132.192 128.582 132.232 128.97 132.232 129.394V132.898H131.116V129.634C131.116 129.25 131.088 128.922 131.032 128.65C130.984 128.378 130.9 128.158 130.78 127.99C130.66 127.822 130.5 127.702 130.3 127.63C130.1 127.55 129.852 127.51 129.556 127.51C129.436 127.51 129.312 127.514 129.184 127.522C129.056 127.53 128.932 127.542 128.812 127.558C128.7 127.566 128.596 127.578 128.5 127.594C128.412 127.61 128.348 127.622 128.308 127.63V132.898H127.192V126.838Z" fill="#183642"/>
</svg>
