<svg width="32" height="32" viewBox="0 0 32 32" fill="none" xmlns="http://www.w3.org/2000/svg">
<path fill-rule="evenodd" clip-rule="evenodd" d="M0.999512 16.2769C0.999512 24.5269 7.74951 31.2769 15.9995 31.2769C24.2495 31.2769 30.9995 24.5269 30.9995 16.2769C30.9995 8.02686 24.2495 1.27686 15.9995 1.27686C7.74951 1.27686 0.999512 8.02686 0.999512 16.2769Z" stroke="#616365"/>
<path d="M24.2823 11.5846C23.935 11.7385 23.5746 11.86 23.2047 11.948C23.6122 11.5607 23.9187 11.0763 24.0915 10.5356C24.1409 10.3812 23.9732 10.2477 23.8339 10.3304C23.3193 10.6356 22.765 10.8646 22.1864 11.011C22.1529 11.0195 22.1182 11.0238 22.0835 11.0238C21.9781 11.0238 21.8756 10.9847 21.795 10.9136C21.1794 10.3711 20.3877 10.0723 19.5656 10.0723C19.2099 10.0723 18.8508 10.1277 18.4982 10.2371C17.4057 10.5759 16.5627 11.4771 16.2982 12.589C16.199 13.006 16.1722 13.4235 16.2183 13.8296C16.2236 13.8763 16.2016 13.9089 16.188 13.9242C16.1641 13.951 16.1302 13.9663 16.095 13.9663C16.0911 13.9663 16.0871 13.9661 16.0831 13.9658C13.6916 13.7436 11.5351 12.5914 10.0107 10.7216C9.933 10.6262 9.78394 10.6379 9.72198 10.7442C9.42348 11.2563 9.26573 11.842 9.26573 12.4381C9.26573 13.3515 9.6327 14.2123 10.2701 14.8398C10.0021 14.7763 9.74263 14.6762 9.50163 14.5423C9.38503 14.4775 9.24157 14.5608 9.23993 14.6941C9.22324 16.0511 10.0177 17.2585 11.2078 17.8022C11.1839 17.8028 11.1599 17.8031 11.1359 17.8031C10.9472 17.8031 10.7562 17.7849 10.5682 17.7489C10.4369 17.7239 10.3266 17.8484 10.3674 17.9757C10.7537 19.1817 11.7921 20.0707 13.0347 20.2725C12.0034 20.9649 10.8024 21.33 9.55242 21.33L9.16273 21.3298C9.04267 21.3298 8.94112 21.4081 8.91052 21.5244C8.88038 21.6389 8.9359 21.7597 9.03828 21.8193C10.4468 22.639 12.0535 23.0723 13.6852 23.0723C15.1136 23.0723 16.4496 22.7888 17.6564 22.2298C18.7626 21.7174 19.7402 20.9848 20.562 20.0525C21.3275 19.1841 21.9261 18.1815 22.3411 17.0728C22.7368 16.0159 22.9459 14.8882 22.9459 13.8115V13.7602C22.9458 13.5873 23.024 13.4247 23.1604 13.3139C23.6781 12.8937 24.1288 12.3989 24.5002 11.8435C24.5982 11.6968 24.4436 11.513 24.2823 11.5846Z" fill="#616365"/>
</svg>
