<svg width="32" height="32" viewBox="0 0 32 32" fill="none" xmlns="http://www.w3.org/2000/svg">
<path fill-rule="evenodd" clip-rule="evenodd" d="M1.33301 16.2769C1.33301 24.5269 8.08301 31.2769 16.333 31.2769C24.583 31.2769 31.333 24.5269 31.333 16.2769C31.333 8.02685 24.583 1.27686 16.333 1.27686C8.08301 1.27686 1.33301 8.02685 1.33301 16.2769Z" stroke="#616365"/>
<path fill-rule="evenodd" clip-rule="evenodd" d="M24.6363 20.7076C24.6135 20.6595 24.5929 20.6195 24.5734 20.5886C24.2567 20.0169 23.6494 19.3148 22.7539 18.4835L22.7356 18.4641L22.7253 18.455L22.715 18.4447H22.707C22.2999 18.057 22.0414 17.7975 21.9351 17.6637C21.7372 17.4098 21.6937 17.1526 21.8012 16.8919C21.8779 16.6952 22.1626 16.279 22.659 15.6443C22.9186 15.3082 23.1256 15.0383 23.2777 14.8348C24.3756 13.3734 24.8525 12.4404 24.7073 12.0345L24.6501 11.9395C24.6123 11.8824 24.514 11.8298 24.355 11.7817C24.196 11.7337 23.9936 11.7269 23.7454 11.7577L21.0007 11.7772C20.9572 11.7612 20.8932 11.7623 20.8109 11.7817C20.7274 11.8012 20.6862 11.8103 20.6862 11.8103L20.6393 11.8343L20.6016 11.8629C20.5684 11.8824 20.5341 11.9155 20.4963 11.9636C20.4586 12.0104 20.4266 12.0665 20.4014 12.1305C20.1018 12.8978 19.7633 13.6124 19.3813 14.2733C19.1457 14.6667 18.9307 15.0086 18.734 15.2967C18.5361 15.586 18.3715 15.7987 18.2388 15.9359C18.105 16.072 17.9849 16.1818 17.8763 16.263C17.7676 16.3464 17.6864 16.3807 17.6292 16.3693C17.5709 16.3556 17.5172 16.343 17.4657 16.3304C17.3765 16.2732 17.3067 16.1955 17.253 16.0972C17.1981 15.9988 17.1615 15.8742 17.142 15.7255C17.1249 15.5757 17.1123 15.4477 17.1089 15.3402C17.1066 15.2316 17.1077 15.0795 17.1146 14.8828C17.1203 14.685 17.1249 14.5523 17.1249 14.4826C17.1249 14.2413 17.1295 13.9783 17.1375 13.6959C17.1478 13.4135 17.1558 13.1893 17.1615 13.0247C17.1683 12.86 17.1718 12.6851 17.1718 12.501C17.1718 12.3169 17.1603 12.1728 17.1375 12.0676C17.1157 11.9636 17.0826 11.8618 17.0368 11.7623C16.9922 11.664 16.9282 11.5874 16.8435 11.5348C16.7566 11.4799 16.6514 11.4376 16.5233 11.4055C16.1871 11.3289 15.7582 11.2878 15.2367 11.2809C14.0565 11.2695 13.2971 11.3449 12.9609 11.5107C12.8271 11.5805 12.7058 11.6754 12.5983 11.7966C12.484 11.9361 12.468 12.0127 12.5503 12.0253C12.9323 12.0825 13.201 12.2185 13.3611 12.4347L13.4172 12.549C13.4618 12.6313 13.5075 12.7766 13.551 12.9869C13.5956 13.1962 13.6242 13.4283 13.6368 13.6822C13.6688 14.1453 13.6688 14.542 13.6368 14.8725C13.6047 15.203 13.575 15.4602 13.5464 15.6443C13.5167 15.8284 13.4744 15.9771 13.4172 16.0926C13.3611 16.2058 13.3223 16.2767 13.3028 16.3018C13.2834 16.327 13.2685 16.343 13.2559 16.3487C13.1736 16.3807 13.0867 16.3967 12.9975 16.3967C12.9094 16.3967 12.8008 16.3521 12.6738 16.263C12.548 16.1749 12.4153 16.0526 12.2793 15.8959C12.1432 15.7415 11.9876 15.5231 11.8172 15.2441C11.6457 14.9651 11.4673 14.6347 11.2831 14.2528L11.131 13.9772C11.035 13.7988 10.9057 13.5404 10.7411 13.2008C10.5752 12.8612 10.4288 12.533 10.303 12.2151C10.2516 12.0825 10.1749 11.9807 10.0743 11.9098L10.0263 11.8812C9.99425 11.8561 9.94279 11.8298 9.87417 11.8C9.80326 11.7726 9.73121 11.7509 9.65459 11.7383L7.04365 11.7577C6.77718 11.7577 6.59648 11.8183 6.50156 11.9384L6.46267 11.9956C6.44437 12.0276 6.43408 12.079 6.43408 12.1477C6.43408 12.2185 6.45352 12.3032 6.49126 12.4061C6.87324 13.3003 7.2861 14.1647 7.73555 14.996C8.18272 15.8284 8.57156 16.4985 8.90093 17.0062C9.23144 17.515 9.56767 17.9941 9.91191 18.4447C10.255 18.8952 10.4814 19.1845 10.5924 19.3114C10.7033 19.4395 10.7914 19.5332 10.8543 19.5973L11.0922 19.826C11.2454 19.978 11.4684 20.161 11.7646 20.3737C12.0597 20.5864 12.3868 20.7956 12.747 21.0026C13.105 21.2084 13.5224 21.3765 13.9993 21.5068C14.4751 21.6372 14.9394 21.6898 15.39 21.6635H16.4856C16.7075 21.6452 16.8767 21.5754 16.9899 21.4542L17.0288 21.4074C17.054 21.3696 17.078 21.3102 17.0997 21.2313C17.1226 21.1512 17.1329 21.0643 17.1329 20.9694C17.1272 20.6961 17.1478 20.4503 17.1946 20.2307C17.2415 20.0123 17.2964 19.8477 17.357 19.7356C17.4177 19.6247 17.4851 19.5309 17.5618 19.4543C17.6384 19.3777 17.6921 19.332 17.7242 19.3171C17.755 19.3011 17.7813 19.2897 17.7996 19.2828C17.9529 19.2325 18.1324 19.2817 18.3383 19.4303C18.5453 19.5801 18.7386 19.7642 18.9204 19.9838C19.1011 20.2033 19.3184 20.4491 19.5711 20.7213C19.8262 20.9946 20.048 21.1981 20.2379 21.3307L20.4289 21.4462C20.557 21.5217 20.7216 21.5915 20.9252 21.6555C21.1288 21.7184 21.3061 21.7344 21.4582 21.7035L23.8976 21.6646C24.1377 21.6646 24.3264 21.6246 24.4602 21.5457C24.5929 21.4668 24.6718 21.3788 24.6981 21.2839C24.7233 21.189 24.7244 21.0803 24.7027 20.9603C24.6798 20.8391 24.6581 20.7556 24.6363 20.7076Z" fill="#616365"/>
</svg>
