<svg width="32" height="32" viewBox="0 0 32 32" fill="none" xmlns="http://www.w3.org/2000/svg">
<path fill-rule="evenodd" clip-rule="evenodd" d="M1.16626 16.2769C1.16626 24.5269 7.91626 31.2769 16.1663 31.2769C24.4163 31.2769 31.1663 24.5269 31.1663 16.2769C31.1663 8.02685 24.4163 1.27686 16.1663 1.27686C7.91626 1.27686 1.16626 8.02685 1.16626 16.2769Z" stroke="#616365"/>
<path d="M13.2781 17.3389L13.2642 25.4408L16.7977 25.4409L16.8117 17.339H19.6099C19.8616 17.339 20.0735 17.1507 20.1031 16.9008L20.4127 14.2892C20.4477 13.9938 20.2169 13.734 19.9195 13.734H16.7977V11.5494C16.7977 10.5587 17.0728 9.88356 18.4935 9.88356L19.809 9.88295C20.0832 9.88278 20.3054 9.66049 20.3054 9.38628V7.18417C20.3054 6.90985 20.083 6.6875 19.8088 6.6875H17.6651C15.0528 6.6875 13.2642 8.28206 13.2642 11.2105V13.734H11.1632C10.8881 13.734 10.6655 13.9575 10.6665 14.2325L10.6766 16.8441C10.6777 17.1177 10.8997 17.3389 11.1732 17.3389H13.2781Z" fill="#616365"/>
</svg>
