<svg width="32" height="32" viewBox="0 0 32 32" fill="none" xmlns="http://www.w3.org/2000/svg">
<path fill-rule="evenodd" clip-rule="evenodd" d="M1 15.5269C1 23.7769 7.75 30.5269 16 30.5269C24.25 30.5269 31 23.7769 31 15.5269C31 7.27686 24.25 0.526855 16 0.526855C7.75 0.526855 1 7.27686 1 15.5269Z" stroke="#616365"/>
<path d="M16.023 15.1528C18.7216 15.1528 20.9216 13.0694 20.9216 10.5139C20.9216 7.95833 18.7216 5.875 16.023 5.875C13.3243 5.875 11.095 7.95833 11.095 10.5139C11.095 13.0694 13.295 15.1528 16.023 15.1528ZM16.023 8.59722C17.1376 8.59722 18.047 9.45833 18.047 10.5139C18.047 11.5694 17.1376 12.4306 16.023 12.4306C14.9083 12.4306 13.999 11.5694 13.999 10.5139C13.9696 9.45833 14.879 8.59722 16.023 8.59722Z" fill="#616365"/>
<path d="M17.9883 18.9581C18.9856 18.7359 19.9536 18.3748 20.8336 17.847C21.5083 17.4581 21.7136 16.597 21.2736 15.9581C20.8629 15.3192 19.9536 15.1248 19.2789 15.5415C17.2843 16.7359 14.6736 16.7359 12.6789 15.5415C12.0043 15.1526 11.1243 15.3192 10.6843 15.9581C10.3029 16.597 10.5083 17.4304 11.1829 17.8192C12.0629 18.347 13.0309 18.7081 14.0283 18.9304L11.3003 21.5137C10.7429 22.0415 10.7429 22.9026 11.3003 23.4304C11.5936 23.7081 11.9456 23.8193 12.3269 23.8193C12.7083 23.8193 13.0603 23.6804 13.3536 23.4304L16.0523 20.8748L18.7509 23.4304C19.3083 23.9581 20.2176 23.9581 20.7749 23.4304C21.3323 22.9026 21.3323 22.0415 20.7749 21.5137L17.9883 18.9581Z" fill="#616365"/>
</svg>
