<svg width="31" height="32" viewBox="0 0 31 32" fill="none" xmlns="http://www.w3.org/2000/svg">
<path fill-rule="evenodd" clip-rule="evenodd" d="M0.499756 16.2769C0.499756 24.5269 7.24976 31.2769 15.4998 31.2769C23.7498 31.2769 30.4998 24.5269 30.4998 16.2769C30.4998 8.02686 23.7498 1.27686 15.4998 1.27686C7.24976 1.27686 0.499756 8.02686 0.499756 16.2769Z" stroke="#616365"/>
<path d="M15.6324 12.8925C13.7799 12.8925 12.2714 14.401 12.2714 16.2535C12.2714 18.1061 13.7799 19.6146 15.6324 19.6146C17.485 19.6146 18.9935 18.1061 18.9935 16.2535C18.9935 14.401 17.485 12.8925 15.6324 12.8925ZM12.1895 16.2535C12.1895 14.3557 13.7346 12.8105 15.6324 12.8105C17.5302 12.8105 19.0754 14.3557 19.0754 16.2535C19.0754 18.1513 17.5302 19.6965 15.6324 19.6965C13.7346 19.6965 12.1895 18.1513 12.1895 16.2535Z" fill="#616365" stroke="#616365" stroke-width="1.5"/>
<path d="M9.68869 23.3182C9.07039 23.0931 8.62695 22.4991 8.62695 21.8043V11.0142C8.62695 10.1268 9.34995 9.40381 10.2373 9.40381H21.0275C21.9145 9.40381 22.6378 10.1269 22.6378 11.0142V21.8043C22.6378 22.6914 21.9147 23.4147 21.0275 23.4147H11.9233C10.9843 23.4147 10.5424 23.4133 10.3203 23.3886L9.68869 23.3182Z" stroke="#616365" stroke-width="1.5"/>
<path d="M22.8876 11.0142V11.0142L22.8879 14.6827H18.7326L16.2726 12.1269L15.9623 11.8045L15.6076 12.0773L12.22 14.6827H8.37703L8.37671 11.0142C8.37671 11.0141 8.37671 11.0141 8.37671 11.0141C8.37673 9.98871 9.21165 9.15381 10.2371 9.15381H21.0272C22.0524 9.15381 22.8876 9.98878 22.8876 11.0142Z" fill="#616365" stroke="#616365"/>
<path d="M20.1007 12.1604C20.488 12.1604 20.802 11.8464 20.802 11.4591C20.802 11.0718 20.488 10.7578 20.1007 10.7578C19.7134 10.7578 19.3994 11.0718 19.3994 11.4591C19.3994 11.8464 19.7134 12.1604 20.1007 12.1604Z" fill="white"/>
</svg>
