<svg width="32" height="32" viewBox="0 0 32 32" fill="none" xmlns="http://www.w3.org/2000/svg">
<path fill-rule="evenodd" clip-rule="evenodd" d="M0.666504 16.2769C0.666504 24.5269 7.4165 31.2769 15.6665 31.2769C23.9165 31.2769 30.6665 24.5269 30.6665 16.2769C30.6665 8.02686 23.9165 1.27686 15.6665 1.27686C7.4165 1.27686 0.666504 8.02686 0.666504 16.2769Z" stroke="#616365"/>
<path d="M20.4515 10.4854H10.8818C9.00423 10.4854 7.48218 12.0074 7.48218 13.885V18.6688C7.48218 20.5463 9.00423 22.0684 10.8818 22.0684H20.4515C22.329 22.0684 23.8511 20.5463 23.8511 18.6688V13.885C23.8511 12.0074 22.329 10.4854 20.4515 10.4854ZM18.1523 16.5096L13.6763 18.6444C13.557 18.7013 13.4192 18.6144 13.4192 18.4822V14.0792C13.4192 13.9452 13.5606 13.8583 13.6802 13.9189L18.1562 16.1871C18.2893 16.2546 18.287 16.4454 18.1523 16.5096Z" fill="#616365"/>
</svg>
