<svg width="32" height="32" viewBox="0 0 32 32" fill="none" xmlns="http://www.w3.org/2000/svg">
<path fill-rule="evenodd" clip-rule="evenodd" d="M0.833252 15.5269C0.833252 23.7769 7.58325 30.5269 15.8333 30.5269C24.0833 30.5269 30.8333 23.7769 30.8333 15.5269C30.8333 7.27686 24.0833 0.526855 15.8333 0.526855C7.58325 0.526855 0.833252 7.27686 0.833252 15.5269Z" stroke="#616365"/>
<path d="M21.6852 7.10791H10.367C9.00171 7.10791 7.89111 8.21851 7.89111 9.58377V20.902C7.89111 22.2672 9.00206 23.3778 10.367 23.3778V23.3456C10.6559 23.3778 11.1812 23.3778 12.1354 23.3778H21.6852C23.0504 23.3778 24.161 22.2669 24.161 20.902V9.58377C24.161 8.21851 23.0501 7.10791 21.6852 7.10791Z" fill="#616365"/>
<circle cx="12.4393" cy="15.2428" r="2.92834" fill="white"/>
<path d="M22.541 15.2428C22.541 16.8601 21.2299 18.1711 19.6127 18.1711C17.9954 18.1711 16.6843 16.8601 16.6843 15.2428C16.6843 13.6255 17.9954 12.3145 19.6127 12.3145C21.2299 12.3145 22.541 13.6255 22.541 15.2428Z" fill="white"/>
</svg>
